<svg xmlns="http://www.w3.org/2000/svg" xmlns:xlink="http://www.w3.org/1999/xlink" xmlns:inkscape="http://www.inkscape.org/namespaces/inkscape" version="1.1" width="604.1056" height="347.244" viewBox="0 0 604.1056 347.244">
<defs>
<clipPath id="clip_1">
<path transform="matrix(1,0,0,-1,-1.0004,355.181)" d="M1.0004 7.93701H605.106V355.181H1.0004Z" clip-rule="evenodd"/>
</clipPath>
<clipPath id="clip_2">
<path transform="matrix(1,0,0,-1,-1.0004,355.181)" d="M40.674 59.172H850.841V346.969H40.674Z"/>
</clipPath>
<clipPath id="clip_3">
<path transform="matrix(1,0,0,-1,-1.0004,355.181)" d="M-5.73249 59.172H804.4345V346.969H-5.73249Z"/>
</clipPath>
<clipPath id="clip_4">
<path transform="matrix(1,0,0,-1,-1.0004,355.181)" d="M-53.314 59.172H756.85299V346.969H-53.314Z"/>
</clipPath>
<clipPath id="clip_5">
<path transform="matrix(1,0,0,-1,-1.0004,355.181)" d="M-102.071 59.172H708.096V346.969H-102.071Z"/>
</clipPath>
<clipPath id="clip_6">
<path transform="matrix(1,0,0,-1,-1.0004,355.181)" d="M-147.303 59.172H662.864V346.969H-147.303Z"/>
</clipPath>
<clipPath id="clip_7">
<path transform="matrix(1,0,0,-1,-1.0004,355.181)" d="M-193.122 59.172H617.045V346.969H-193.122Z"/>
</clipPath>
<clipPath id="clip_8">
<path transform="matrix(1,0,0,-1,-1.0004,355.181)" d="M40.674 59.172H850.841V346.969H40.674Z"/>
</clipPath>
<clipPath id="clip_9">
<path transform="matrix(1,0,0,-1,-1.0004,355.181)" d="M-5.73249 59.172H804.4345V346.969H-5.73249Z"/>
</clipPath>
<clipPath id="clip_10">
<path transform="matrix(1,0,0,-1,-1.0004,355.181)" d="M-53.314 59.172H756.85299V346.969H-53.314Z"/>
</clipPath>
<clipPath id="clip_11">
<path transform="matrix(1,0,0,-1,-1.0004,355.181)" d="M-102.071 59.172H708.096V346.969H-102.071Z"/>
</clipPath>
<clipPath id="clip_12">
<path transform="matrix(1,0,0,-1,-1.0004,355.181)" d="M-147.303 59.172H662.864V346.969H-147.303Z"/>
</clipPath>
<clipPath id="clip_13">
<path transform="matrix(1,0,0,-1,-1.0004,355.181)" d="M-193.122 59.172H617.045V346.969H-193.122Z"/>
</clipPath>
<clipPath id="clip_14">
<path transform="matrix(1,0,0,-1,-1.0004,355.181)" d="M40.674 59.172H850.841V346.969H40.674Z"/>
</clipPath>
<clipPath id="clip_15">
<path transform="matrix(1,0,0,-1,-1.0004,355.181)" d="M-5.73249 59.172H804.4345V346.969H-5.73249Z"/>
</clipPath>
<clipPath id="clip_16">
<path transform="matrix(1,0,0,-1,-1.0004,355.181)" d="M-53.314 59.172H756.85299V346.969H-53.314Z"/>
</clipPath>
<clipPath id="clip_17">
<path transform="matrix(1,0,0,-1,-1.0004,355.181)" d="M-102.071 59.172H708.096V346.969H-102.071Z"/>
</clipPath>
<clipPath id="clip_18">
<path transform="matrix(1,0,0,-1,-1.0004,355.181)" d="M-147.303 59.172H662.864V346.969H-147.303Z"/>
</clipPath>
<clipPath id="clip_19">
<path transform="matrix(1,0,0,-1,-1.0004,355.181)" d="M-193.122 59.172H617.045V346.969H-193.122Z"/>
</clipPath>
<clipPath id="clip_20">
<path transform="matrix(1,0,0,-1,-1.0004,355.181)" d="M40.674 59.172H850.841V346.969H40.674Z"/>
</clipPath>
<clipPath id="clip_21">
<path transform="matrix(1,0,0,-1,-1.0004,355.181)" d="M-5.73249 59.172H804.4345V346.969H-5.73249Z"/>
</clipPath>
<clipPath id="clip_22">
<path transform="matrix(1,0,0,-1,-1.0004,355.181)" d="M-53.314 59.172H756.85299V346.969H-53.314Z"/>
</clipPath>
<clipPath id="clip_23">
<path transform="matrix(1,0,0,-1,-1.0004,355.181)" d="M-102.071 59.172H708.096V346.969H-102.071Z"/>
</clipPath>
<clipPath id="clip_24">
<path transform="matrix(1,0,0,-1,-1.0004,355.181)" d="M-147.303 59.172H662.864V346.969H-147.303Z"/>
</clipPath>
<clipPath id="clip_25">
<path transform="matrix(1,0,0,-1,-1.0004,355.181)" d="M-193.122 59.172H617.045V346.969H-193.122Z"/>
</clipPath>
<clipPath id="clip_26">
<path transform="matrix(1,0,0,-1,-1.0004,355.181)" d="M40.674 59.172H850.841V346.969H40.674Z"/>
</clipPath>
<clipPath id="clip_27">
<path transform="matrix(1,0,0,-1,-1.0004,355.181)" d="M-5.73249 59.172H804.4345V346.969H-5.73249Z"/>
</clipPath>
<clipPath id="clip_28">
<path transform="matrix(1,0,0,-1,-1.0004,355.181)" d="M-53.314 59.172H756.85299V346.969H-53.314Z"/>
</clipPath>
<clipPath id="clip_29">
<path transform="matrix(1,0,0,-1,-1.0004,355.181)" d="M-102.071 59.172H708.096V346.969H-102.071Z"/>
</clipPath>
<clipPath id="clip_30">
<path transform="matrix(1,0,0,-1,-1.0004,355.181)" d="M-147.303 59.172H662.864V346.969H-147.303Z"/>
</clipPath>
<clipPath id="clip_31">
<path transform="matrix(1,0,0,-1,-1.0004,355.181)" d="M-193.122 59.172H617.045V346.969H-193.122Z"/>
</clipPath>
<clipPath id="clip_32">
<path transform="matrix(1,0,0,-1,-1.0004,355.181)" d="M40.674 59.172H850.841V346.969H40.674Z"/>
</clipPath>
<clipPath id="clip_33">
<path transform="matrix(1,0,0,-1,-1.0004,355.181)" d="M-5.73249 59.172H804.4345V346.969H-5.73249Z"/>
</clipPath>
<clipPath id="clip_34">
<path transform="matrix(1,0,0,-1,-1.0004,355.181)" d="M-53.314 59.172H756.85299V346.969H-53.314Z"/>
</clipPath>
<clipPath id="clip_35">
<path transform="matrix(1,0,0,-1,-1.0004,355.181)" d="M-102.071 59.172H708.096V346.969H-102.071Z"/>
</clipPath>
<clipPath id="clip_36">
<path transform="matrix(1,0,0,-1,-1.0004,355.181)" d="M-147.303 59.172H662.864V346.969H-147.303Z"/>
</clipPath>
<clipPath id="clip_37">
<path transform="matrix(1,0,0,-1,-1.0004,355.181)" d="M-193.122 59.172H617.045V346.969H-193.122Z"/>
</clipPath>
<path id="font_38_49" d="M.015991211 .6429901C.08999634 .6349945 .09899902 .6259918 .099990848 .5529938V.11999512C.09899902 .034988405 .09199524 .025985718 .015991211 .018997193V0H.29599V.018997193C.21699524 .020996094 .20298767 .034988405 .20199585 .10899353V.29100038C.22799683 .2889862 .24499512 .28799439 .2709961 .28799439 .34999085 .28799439 .40299989 .2979889 .44599916 .32199098 .5059967 .35398866 .5419922 .4149933 .5419922 .48098756 .5419922 .522995 .5279999 .5609894 .5009918 .58999636 .46099855 .6339874 .37399293 .6619873 .27999879 .6619873H.015991211V.6429901M.20199585 .59098818C.20199585 .6179962 .20899964 .625 .23599243 .625 .37098695 .625 .43299867 .5779877 .43299867 .47499085 .43299867 .37799073 .37399293 .32798768 .25898744 .32798768 .23899842 .32798768 .22499085 .32899476 .20199585 .33099366V.59098818Z"/>
<path id="font_38_48" d="M.36099244 .6759949C.16999817 .6759949 .033996583 .5329895 .033996583 .33099366 .033996583 .23699951 .06599426 .14498902 .11999512 .08799744 .17799378 .024993897 .2669983-.014007568 .35499574-.014007568 .5519867-.014007568 .6879883 .125 .6879883 .32699586 .6879883 .42599488 .6589966 .5119934 .60398867 .57099917 .54100039 .6399994 .45700074 .6759949 .36099244 .6759949M.36099244 .6399994C.40699769 .6399994 .45298768 .621994 .4889984 .58999636 .54299929 .54100039 .57398989 .44699098 .57398989 .32798768 .57398989 .2689972 .56199648 .19999695 .54100039 .147995 .5319977 .12298584 .5149994 .09799194 .49198915 .07499695 .45700074 .039993287 .4119873 .021987915 .35899354 .021987915 .31298829 .021987915 .2679901 .039993287 .23199463 .070999149 .18099976 .116989139 .147995 .21798706 .147995 .32899476 .147995 .43099977 .17599488 .5279999 .21798706 .57499697 .25698854 .6179962 .30599977 .6399994 .36099244 .6399994Z"/>
<path id="font_38_1" d=""/>
<path id="font_38_80" d="M.25 .45999146C.11898804 .45999146 .0289917 .3639984 .0289917 .22599793 .0289917 .08999634 .12199402-.010009766 .24798584-.010009766 .37399293-.010009766 .46998597 .09498596 .46998597 .23399353 .46998597 .3659973 .37799073 .45999146 .25 .45999146M.23699951 .43199159C.32099916 .43199159 .37998963 .33599855 .37998963 .19898987 .37998963 .084991458 .33499146 .017990113 .2599945 .017990113 .22099304 .017990113 .18399048 .041992189 .16299439 .08198547 .1349945 .13398743 .11898804 .20399475 .11898804 .2749939 .11898804 .36999513 .16499329 .43199159 .23699951 .43199159Z"/>
<path id="font_38_79" d="M.017990113 0H.22999573V.01499939C.17999268 .017990113 .1639862 .0309906 .1639862 .066986087V.34799195C.21199036 .3929901 .23399353 .40499879 .2669983 .40499879 .31599427 .40499879 .33999635 .37399293 .33999635 .30799867V.09899902C.33799745 .033996583 .32598878 .017990113 .2769928 .01499939V0H.4850006V.01499939C.43598939 .019989014 .4249878 .03199768 .42399598 .08099365V.30999757C.42399598 .4039917 .37998963 .45999146 .30599977 .45999146 .2599945 .45999146 .22898865 .44299317 .16099549 .3789978V.45799256L.1539917 .45999146C.101989749 .44099427 .067993167 .42999269 .015991211 .4149933V.397995C.022994996 .40098573 .03199768 .4019928 .042999269 .4019928 .070999149 .4019928 .07998657 .3869934 .07998657 .33799745V.08999634C.07899475 .0309906 .067993167 .017990113 .017990113 .01499939V0Z"/>
<path id="font_38_77" d="M.020996094 0H.25698854V.01499939C.19400025 .017990113 .18299866 .027999878 .18199158 .083999637V.68099978L.17799378 .68299868C.1269989 .6669922 .08999634 .6559906 .018997193 .6389923V.6230011H.024993897C.035995485 .6239929 .04798889 .625 .055999757 .625 .08799744 .625 .09799194 .61099246 .09799194 .56399539V.08699036C.09700012 .032989503 .08299255 .018997193 .020996094 .01499939V0Z"/>
<path id="font_38_90" d="M.47499085 .44999696H.33999635V.43499757C.37199403 .43499757 .3880005 .42599488 .3880005 .4099884 .3880005 .4059906 .3869934 .3999939 .38398744 .3929901L.2869873 .116989139 .17199707 .36999513C.1659851 .38398744 .1619873 .397995 .1619873 .4079895 .1619873 .42599488 .1769867 .43299867 .21998596 .43499757V.44999696H.01399231V.43598939C.039993287 .43199159 .056991579 .42099 .06498718 .4039917L.1789856 .1579895C.19099427 .1309967 .19198609 .12998963 .19699097 .11999512 .22499085 .069992069 .24099732 .032989503 .24099732 .017990113 .24099732 .0019989014 .21798706-.059005739 .20098877-.0900116 .18598938-.11500549 .16499329-.13400269 .15098572-.13400269 .14498902-.13400269 .13598633-.13200379 .125-.12701416 .10699463-.120010379 .08898926-.11601257 .07299805-.11601257 .04899597-.11601257 .02999878-.13500977 .02999878-.16000366 .02999878-.19300843 .06098938-.21800232 .10398865-.21800232 .17199707-.21800232 .21798706-.16300965 .272995-.018005372L.4269867 .3899994C.43998719 .42199708 .45098878 .43199159 .47499085 .43499757V.44999696Z"/>
<path id="font_38_21" d="M.47200013 .23098755H.36999513V.6759949H.32598878L.011993408 .23098755V.16699219H.29299928V0H.36999513V.16699219H.47200013V.23098755M.2919922 .23098755H.051986696L.2919922 .57398989V.23098755Z"/>
<path id="font_38_168" d="M.23399353 .25299073 .037994386 .055999757 .085998538 .0079956059 .28199769 .20498657 .47898866 .0079956059 .5269928 .055999757 .32998658 .25299073 .5269928 .44898988 .47898866 .49699403 .28199769 .2999878 .085998538 .49699403 .037994386 .44898988 .23399353 .25299073Z"/>
<path id="font_38_19" d="M.47499085 .13699341 .46199037 .14199829C.4249878 .083999637 .4139862 .07699585 .36698915 .07598877H.12799073L.29599 .2519989C.3849945 .34498597 .42399598 .42099 .42399598 .49899293 .42399598 .598999 .34298707 .6759949 .23899842 .6759949 .18399048 .6759949 .13198853 .6539917 .09498596 .6139984 .06298828 .5799866 .04798889 .5479889 .0309906 .47698976L.051986696 .47200013C.09199524 .56999209 .1269989 .60198977 .19699097 .60198977 .28199769 .60198977 .33799745 .54499819 .33799745 .46099855 .33799745 .38198854 .2919922 .2899933 .20799256 .20098877L.02999878 .011993408V0H.41999818L.47499085 .13699341Z"/>
<path id="font_38_25" d="M.2899933 .37098695C.3899994 .4249878 .42399598 .46598817 .42399598 .5339966 .42399598 .61698916 .35299684 .6759949 .2519989 .6759949 .14299011 .6759949 .06199646 .60899356 .06199646 .5179901 .06199646 .45298768 .08099365 .42399598 .18598938 .33198548 .07699585 .24899292 .055999757 .21998596 .055999757 .15098572 .055999757 .052993776 .13398743-.014007568 .24798584-.014007568 .36799623-.014007568 .44499208 .051986696 .44499208 .15499878 .44499208 .23199463 .41099549 .27999879 .2899933 .37098695M.27198792 .2679901C.34498597 .21598816 .36898805 .17999268 .36898805 .12399292 .36898805 .05899048 .32398988 .01399231 .25898744 .01399231 .18299866 .01399231 .13198853 .07199097 .13198853 .1579895 .13198853 .22299195 .15299988 .2639923 .21199036 .31199647L.27198792 .2679901M.26098634 .3889923C.17199707 .44699098 .13598633 .49299623 .13598633 .548996 .13598633 .6069946 .18099976 .647995 .24398804 .647995 .31199647 .647995 .35499574 .60398867 .35499574 .5349884 .35499574 .47399903 .32899476 .43399049 .26098634 .3889923Z"/>
<path id="font_38_18" d="M.117996219 0H.3939972V.01499939C.31698609 .01499939 .2999878 .025985718 .29899598 .07398987V.673996L.29100038 .6759949 .11099243 .58499148V.57099917C.1499939 .58599856 .17399597 .59298709 .18299866 .59298709 .20399475 .59298709 .21299744 .5779877 .21299744 .54599V.09298706C.21099854 .02999878 .19400025 .015991211 .117996219 .01499939V0Z"/>
<path id="font_38_23" d="M.44599916 .6839905C.33198548 .673996 .27398683 .6549988 .20098877 .60398867 .09298706 .5269928 .033996583 .41299439 .033996583 .2789917 .033996583 .19198609 .06098938 .10398865 .10398865 .053985597 .14199829 .009994507 .19599915-.014007568 .2579956-.014007568 .38198854-.014007568 .46798707 .08099365 .46798707 .21899414 .46798707 .34799195 .3959961 .42799378 .2789917 .42799378 .23498535 .42799378 .21499634 .42099 .1519928 .3829956 .1789856 .5339966 .29100038 .6419983 .44799806 .66799929L.44599916 .6839905M.24198914 .38198854C.32899476 .38198854 .37799073 .30999757 .37799073 .18499756 .37799073 .07499695 .33898927 .01399231 .2689972 .01399231 .18099976 .01399231 .1269989 .10798645 .1269989 .2630005 .1269989 .31399537 .1349945 .34199525 .15499878 .35699464 .17599488 .37298585 .20698548 .38198854 .24198914 .38198854Z"/>
<path id="font_38_37" d="M.015991211 0H.2999878C.41600038 0 .5209961 .032989503 .58299258 .08898926 .647995 .147995 .68499758 .23699951 .68499758 .33399964 .68499758 .42399598 .6559906 .5019989 .59999087 .5569916 .5319977 .6259918 .4229889 .6619873 .28599549 .6619873H.015991211V.6429901C.09498596 .6359863 .102996829 .6279907 .10398865 .5529938V.10899353C.102996829 .035995485 .09098816 .023986817 .015991211 .018997193V0M.20599365 .58599856C.20599365 .61698916 .21598816 .625 .2579956 .625 .34498597 .625 .40899659 .60899356 .45700074 .57499697 .5349884 .5209961 .57598879 .43499757 .57598879 .32699586 .57598879 .20899964 .5349884 .125 .45399476 .07798767 .40299989 .04899597 .34498597 .036987306 .2579956 .036987306 .21798706 .036987306 .20599365 .04598999 .20599365 .07798767V.58599856Z"/>
<path id="font_38_74" d="M.015991211 0H.25299073V.01499939C.18699646 .019989014 .17999268 .0289917 .1789856 .101989749V.45700074L.1749878 .45999146 .019989014 .40499879V.3899994L.027999878 .3909912C.039993287 .3929901 .051986696 .3939972 .06199646 .3939972 .085998538 .3939972 .09498596 .37799073 .09498596 .33399964V.101989749C.09298706 .027999878 .083999637 .017990113 .015991211 .01499939V0M.12799073 .68299868C.100997928 .68299868 .07798767 .6599884 .07798767 .6319885 .07798767 .6029968 .099990848 .58099368 .12799073 .58099368 .1579895 .58099368 .17999268 .6029968 .17999268 .6319885 .17999268 .6609955 .15699768 .68299868 .12799073 .68299868Z"/>
<path id="font_38_71" d="M.30899049 .44999696H.18598938V.56599429C.18598938 .625 .20498657 .6549988 .24299622 .6549988 .2649994 .6549988 .27799989 .644989 .29599 .6159973 .31199647 .58999636 .32398988 .5799866 .34098817 .5799866 .36499024 .5799866 .3829956 .59799197 .3829956 .62098696 .3829956 .6569977 .33898927 .68299868 .2789917 .68299868 .21598816 .68299868 .1639862 .6559906 .13798523 .61099246 .11199951 .56599429 .10398865 .5299988 .102996829 .44999696H.020996094V.41799928H.102996829V.10398865C.100997928 .0289917 .09098816 .017990113 .019989014 .01499939V0H.27999879V.01499939C.19799805 .017990113 .18699646 .0289917 .18699646 .10398865V.41799928H.30899049V.44999696Z"/>
<path id="font_38_86" d="M.47898866 .049987794H.47399903C.4249878 .051986696 .41799928 .05999756 .4169922 .10699463V.44999696H.25898744V.43299867C.32099916 .42999269 .33299256 .41999818 .33299256 .36999513V.1349945C.33299256 .10699463 .32798768 .09298706 .31399537 .08198547 .2869873 .05999756 .2559967 .04798889 .22599793 .04798889 .18699646 .04798889 .15499878 .08198547 .15499878 .12399292V.44999696H.008987427V.43598939C.055999757 .43399049 .069992069 .41999818 .070999149 .37199403V.11999512C.070999149 .040985109 .11898804-.010009766 .19198609-.010009766 .22898865-.010009766 .2679901 .005996704 .29499818 .032989503L.33799745 .07598877V-.007003784L.34199525-.009002686C.3919983 .010986328 .42799378 .021987915 .47898866 .035995485V.049987794Z"/>
<path id="font_38_84" d="M.31498719 .31399537 .31098939 .45098878H.2999878C.29499818 .44299317 .2899933 .43998719 .28399659 .43998719 .27799989 .43998719 .2679901 .44198609 .25698854 .44699098 .23399353 .45498658 .21099854 .45999146 .18699646 .45999146 .10798645 .45999146 .050994874 .4079895 .050994874 .33599855 .050994874 .27999879 .08299255 .23999024 .16799927 .19198609L.22599793 .15899658C.26098634 .13899231 .27799989 .114990238 .27799989 .083999637 .27799989 .039993287 .24598694 .011993408 .19499207 .011993408 .12599182 .011993408 .09098816 .049987794 .067993167 .1519928H.051986696V-.0040130617H.06498718C.07199097 .005996704 .07598877 .0079956059 .08799744 .0079956059 .09899902 .0079956059 .11099243 .005996704 .13398743 0 .16099549-.006011963 .18699646-.010009766 .20698548-.010009766 .2849884-.010009766 .34799195 .04798889 .34799195 .117996219 .34799195 .16799927 .32398988 .20098877 .2639923 .23699951L.1559906 .30099488C.12799073 .31799317 .11299133 .34199525 .11299133 .36898805 .11299133 .4099884 .14399719 .43699647 .18998719 .43699647 .24699402 .43699647 .2769928 .4039917 .2999878 .31399537H.31498719Z"/>
<path id="font_38_36" d="M.6199951 .45098878 .61099246 .6759949H.58999636C.58399966 .6549988 .56799319 .6429901 .5479889 .6429901 .5389862 .6429901 .5239868 .6459961 .5089874 .651001 .45999146 .66799929 .4099884 .6759949 .36299134 .6759949 .2809906 .6759949 .19799805 .644989 .13598633 .58999636 .06599426 .5279999 .027999878 .43598939 .027999878 .32598878 .027999878 .12199402 .16099549-.014007568 .3600006-.014007568 .47299195-.014007568 .57299807 .03199768 .6329956 .11299133L.61499026 .1309967C.5419922 .05999756 .47499085 .02999878 .3919983 .02999878 .32899476 .02999878 .272995 .049987794 .22999573 .08799744 .1749878 .13699341 .14399719 .22698975 .14399719 .33898927 .14399719 .519989 .23699951 .6359863 .38198854 .6359863 .43899537 .6359863 .4909973 .61499026 .5309906 .57598879 .5629883 .5439911 .5779877 .5159912 .5970001 .45098878H.6199951Z"/>
<path id="font_38_72" d="M.46998597 .3880005V.4269867H.3929901C.37199403 .4269867 .35798646 .42999269 .33799745 .43699647L.31599427 .44499208C.2899933 .45498658 .2619934 .45999146 .23599243 .45999146 .14299011 .45999146 .068984989 .3889923 .068984989 .29699708 .068984989 .23399353 .09498596 .19599915 .1619873 .16299439L.13598633 .13899231C.114990238 .11898804 .102996829 .10798645 .099990848 .10398865 .07899475 .08198547 .07299805 .070999149 .07299805 .053985597 .07299805 .03199768 .083999637 .020996094 .12599182 .0009918213 .053985597-.05101013 .027999878-.08401489 .027999878-.1210022 .027999878-.17401123 .10499573-.21800232 .20098877-.21800232 .27598573-.21800232 .35398866-.19200135 .4059906-.15000916 .44400025-.119003299 .46099855-.087005618 .46099855-.04901123 .46099855 .0129852299 .4139862 .053985597 .33999635 .057998659L.21099854 .06399536C.15699768 .06599426 .1329956 .07499695 .1329956 .09098816 .1329956 .11099243 .1659851 .1459961 .19299317 .1539917 .22898865 .15098572 .24798584 .14898682 .25 .14898682 .2869873 .14898682 .32699586 .1639862 .35798646 .19099427 .3909912 .21899414 .4059906 .2539978 .4059906 .3039856 .4059906 .33299256 .40098573 .35598756 .3869934 .3880005H.46998597M.14698792-.0020141602C.18099976-.009002686 .25898744-.015014648 .30999757-.015014648 .3999939-.015014648 .43299867-.028015137 .43299867-.06401062 .43299867-.12200928 .35699464-.16101074 .24398804-.16101074 .15499878-.16101074 .09799194-.13200379 .09799194-.088012699 .09799194-.06500244 .10699463-.05000305 .14698792-.0020141602M.1519928 .33799745C.1519928 .39698792 .17999268 .43199159 .22599793 .43199159 .25698854 .43199159 .2829895 .4149933 .29899598 .3849945 .31799317 .34999085 .32899476 .30499269 .32899476 .2649994 .32899476 .20899964 .30099488 .17399597 .25498963 .17399597 .19299317 .17399597 .1519928 .23899842 .1519928 .33499146V.33799745Z"/>
<path id="font_38_83" d="M.004989624 0H.24499512V.01499939C.17799378 .016998291 .1619873 .0309906 .1599884 .08999634V.31498719C.1599884 .34700013 .20199585 .39698792 .22999573 .39698792 .23599243 .39698792 .24499512 .3919983 .2559967 .38198854 .2709961 .36698915 .2829895 .3619995 .29599 .3619995 .31999208 .3619995 .33499146 .3789978 .33499146 .40699769 .33499146 .43998719 .31399537 .45999146 .27999879 .45999146 .23799134 .45999146 .20999146 .43798829 .1599884 .3659973V.45799256L.15499878 .45999146C.09899902 .43798829 .06298828 .42399598 .0069885256 .4059906V.3899994C.020996094 .3929901 .02999878 .3939972 .041992189 .3939972 .066986087 .3939972 .07598877 .37799073 .07598877 .33399964V.083999637C.07398987 .03199768 .067993167 .025985718 .004989624 .01499939V0Z"/>
<path id="font_38_66" d="M.44198609 .06599426C.4249878 .051986696 .41299439 .04699707 .397995 .04699707 .375 .04699707 .36799623 .06098938 .36799623 .10499573V.2999878C.36799623 .35198976 .36299134 .3809967 .34799195 .40499879 .32598878 .44099427 .2829895 .45999146 .22399903 .45999146 .12998963 .45999146 .055999757 .41099549 .055999757 .34799195 .055999757 .32499696 .07499695 .30499269 .09899902 .30499269 .12298584 .30499269 .14399719 .32499696 .14399719 .34700013 .14399719 .35099793 .14299011 .35598756 .14199829 .36299134 .13999939 .37199403 .13899231 .37998963 .13899231 .3869934 .13899231 .4139862 .17098999 .43598939 .21099854 .43598939 .2599945 .43598939 .2869873 .40699769 .2869873 .35299684V.2919922C.13398743 .23098755 .115997318 .22200012 .07299805 .18399048 .050994874 .1639862 .036987306 .12998963 .036987306 .09700012 .036987306 .033996583 .08099365-.010009766 .14199829-.010009766 .18598938-.010009766 .22698975 .010986328 .28799439 .06298828 .29299928 .009994507 .31098939-.010009766 .35198976-.010009766 .38598634-.010009766 .40699769 .0019989014 .44198609 .039993287V.06599426M.2869873 .12298584C.2869873 .09298706 .28199769 .08198547 .26098634 .069992069 .23599243 .055999757 .20899964 .04798889 .18798828 .04798889 .15299988 .04798889 .125 .08198547 .125 .125V.1289978C.12599182 .18899536 .16999817 .22698975 .2869873 .2679901V.12298584Z"/>
<path id="font_38_85" d="M.25498963 .44999696H.1539917V.56599429C.1539917 .57598879 .1519928 .57899478 .14698792 .57899478 .08898926 .49499513 .05899048 .46099855 .02999878 .44400025 .018997193 .43699647 .0129852299 .43099977 .0129852299 .4249878 .0129852299 .42199708 .01399231 .41999818 .016998291 .41799928H.069992069V.116989139C.069992069 .032989503 .099990848-.010009766 .15899658-.010009766 .20799256-.010009766 .24598694 .01399231 .2789917 .06599426L.2659912 .07699585C.24398804 .050994874 .22799683 .041992189 .20599365 .041992189 .16899109 .041992189 .1539917 .068984989 .1539917 .13198853V.41799928H.25498963V.44999696Z"/>
<path id="font_38_17" d="M.2539978 .6759949C.19898987 .6759949 .15699768 .6599884 .11999512 .6239929 .06199646 .56799319 .023986817 .45298768 .023986817 .33599855 .023986817 .22599793 .056991579 .10998535 .10398865 .053985597 .14099121 .009994507 .19198609-.014007568 .25-.014007568 .30099488-.014007568 .34399415 .0029907227 .37998963 .037994386 .43798829 .09298706 .47599793 .20899964 .47599793 .32998658 .47599793 .5349884 .3849945 .6759949 .2539978 .6759949M.25099183 .6499939C.33499146 .6499939 .37998963 .5369873 .37998963 .32798768 .37998963 .11898804 .33599855 .011993408 .25 .011993408 .1639862 .011993408 .11999512 .11898804 .11999512 .32699586 .11999512 .5399933 .16499329 .6499939 .25099183 .6499939Z"/>
<clipPath id="clip_39">
<path transform="matrix(1,0,0,-1,-1.0004,355.181)" d="M62.703 59.172H595.173V346.969H62.703Z"/>
</clipPath>
<clipPath id="clip_40">
<path transform="matrix(1,0,0,-1,-1.0004,355.181)" d="M62.703 59.172H595.173V346.969H62.703Z"/>
</clipPath>
<clipPath id="clip_41">
<path transform="matrix(1,0,0,-1,-1.0004,355.181)" d="M62.703 59.172H595.173V346.969H62.703Z"/>
</clipPath>
<clipPath id="clip_42">
<path transform="matrix(1,0,0,-1,-1.0004,355.181)" d="M62.703 59.172H595.173V346.969H62.703Z"/>
</clipPath>
<clipPath id="clip_43">
<path transform="matrix(1,0,0,-1,-1.0004,355.181)" d="M62.703 59.172H595.173V346.969H62.703Z"/>
</clipPath>
<clipPath id="clip_44">
<path transform="matrix(1,0,0,-1,-1.0004,355.181)" d="M62.703 59.172H595.173V346.969H62.703Z"/>
</clipPath>
<path id="font_38_56" d="M.9319916 .6619873H.73399356V.6429901C.7849884 .6380005 .8029938 .6269989 .8029938 .59999087 .8029938 .5799866 .7969971 .5529938 .7869873 .5249939L.6619873 .18598938 .5299988 .5269928C.522995 .54499819 .519989 .5529938 .5179901 .5569916 .5089874 .5779877 .5029907 .5970001 .5029907 .60798647 .5029907 .6319885 .526001 .6419983 .5799866 .6429901V.6619873H.31298829V.6429901C.36999513 .6419983 .37998963 .6329956 .4139862 .5529938L.44699098 .47099305 .33999635 .18899536 .19599915 .5649872C.18899536 .58299258 .18499756 .59999087 .18499756 .61099246 .18499756 .6329956 .19898987 .6389923 .25 .6429901V.6619873H.004989624V.6429901C.055999757 .6380005 .070999149 .6199951 .10798645 .526001L.30099488-.011001587H.31599427L.46998597 .4119873 .6299896-.011001587H.644989C.73098757 .25099183 .73799136 .27198792 .848999 .57199099 .8679962 .6239929 .8789978 .6329956 .9319916 .6429901V.6619873Z"/>
<path id="font_38_14" d="M.038986207 .25698854V.19400025H.2849884V.25698854H.038986207Z"/>
<path id="font_38_68" d="M.397995 .1559906C.34999085 .085998538 .31399537 .06199646 .25698854 .06199646 .16499329 .06199646 .101989749 .14199829 .101989749 .25698854 .101989749 .36099244 .15699768 .43099977 .23799134 .43099977 .27398683 .43099977 .2869873 .42099 .29699708 .3829956L.30299378 .36099244C.31098939 .33198548 .32899476 .31498719 .35099793 .31498719 .3769989 .31498719 .397995 .33399964 .397995 .35699464 .397995 .41299439 .32798768 .45999146 .24398804 .45999146 .19499207 .45999146 .14399719 .43998719 .102996829 .4039917 .052993776 .3600006 .024993897 .2919922 .024993897 .21199036 .024993897 .08299255 .10398865-.010009766 .21499634-.010009766 .2599945-.010009766 .2999878 .005996704 .33599855 .036987306 .36299134 .05999756 .38198854 .08799744 .4119873 .14698792L.397995 .1559906Z"/>
<path id="font_38_76" d="M.0069885256 0H.24099732V.01499939L.22099304 .015991211C.1789856 .018997193 .16699219 .02999878 .1659851 .066986087V.25099183L.30599977 .06399536C.30999757 .05899048 .31298829 .053985597 .31599427 .050994874 .32398988 .040985109 .32699586 .034988405 .32699586 .02999878 .32699586 .020996094 .31799317 .01499939 .30599977 .01499939H.2869873V0H.5049896V.01499939C.46099855 .017990113 .42999269 .036987306 .3880005 .08799744L.23498535 .28199769 .2639923 .30899049C.3889923 .42099 .41600038 .43699647 .47999574 .43499757V.44999696H.27598573V.43598939C.31498719 .43499757 .32598878 .43099977 .32598878 .41799928 .32598878 .40899659 .31698609 .3959961 .30299378 .3829956L.1659851 .26098634V.68099978L.1619873 .68299868C.12298584 .67099 .09399414 .6619873 .036987306 .6469879L.0069885256 .6389923V.6230011C.019989014 .6239929 .0289917 .625 .038986207 .625 .07299805 .625 .08198547 .6119995 .08198547 .56399539V.08198547C.08099365 .0289917 .07798767 .025985718 .0069885256 .01499939V0Z"/>
<path id="font_38_78" d="M.015991211 0H.23799134V.01499939C.18699646 .015991211 .17098999 .026992798 .16999817 .066986087V.34899903C.16999817 .35099793 .17799378 .36099244 .18499756 .36799623 .20999146 .3909912 .25299073 .4079895 .28799439 .4079895 .33198548 .4079895 .35398866 .37298585 .35398866 .30299378V.085998538C.35198976 .0289917 .34199525 .017990113 .28599549 .01499939V0H.5099945V.01499939C.45399476 .01499939 .43998719 .0309906 .43798829 .09498596V.34700013C.46798707 .3899994 .5 .4079895 .5469971 .4079895 .60398867 .4079895 .621994 .3809967 .621994 .2979889V.08699036C.6199951 .027999878 .6139984 .020996094 .55599978 .01499939V0H.7749939V.01499939L.7489929 .016998291C.71699526 .021987915 .70599368 .036987306 .70599368 .07598877V.28199769C.70599368 .3999939 .6669922 .45999146 .58999636 .45999146 .5319977 .45999146 .48098756 .43399049 .4269867 .37599183 .40899659 .43299867 .375 .45999146 .32099916 .45999146 .27598573 .45999146 .24899292 .44699098 .1659851 .3829956V.45799256L.15899658 .45999146C.10598755 .44099427 .07199097 .42999269 .018997193 .4149933V.397995C.0309906 .40098573 .039993287 .4019928 .050994874 .4019928 .07699585 .4019928 .085998538 .38598634 .085998538 .33799745V.084991458C.083999637 .0289917 .070999149 .01499939 .015991211 .01499939V0Z"/>
<path id="font_38_70" d="M.4079895 .1639862C.3600006 .08799744 .31698609 .05899048 .25299073 .05899048 .19599915 .05899048 .15299988 .08799744 .12399292 .14498902 .10598755 .18299866 .09899902 .21499634 .09700012 .2769928H.40499879C.39698792 .34199525 .3869934 .37098695 .3619995 .40299989 .33198548 .43899537 .28599549 .45999146 .23399353 .45999146 .18399048 .45999146 .13699341 .44198609 .09899902 .4079895 .051986696 .36698915 .024993897 .29599 .024993897 .21398926 .024993897 .07598877 .09700012-.010009766 .21199036-.010009766 .30699159-.010009766 .38198854 .04899597 .42399598 .15699768L.4079895 .1639862M.09899902 .30899049C.10998535 .3869934 .14399719 .42399598 .20498657 .42399598 .2659912 .42399598 .2899933 .3959961 .30299378 .30899049H.09899902Z"/>
<path id="font_38_81" d="M.004989624-.2170105H.24699402V-.19900513C.17199707-.1980133 .1599884-.18800354 .15899658-.12400818V.032989503C.19499207 0 .21798706-.010009766 .2599945-.010009766 .3789978-.010009766 .46998597 .101989749 .46998597 .24699402 .46998597 .37098695 .3999939 .45999146 .30299378 .45999146 .24699402 .45999146 .20298767 .43598939 .15899658 .3809967V.45799256L.15299988 .45999146C.09899902 .43899537 .06399536 .42599488 .008987427 .40899659V.3929901C.017990113 .3939972 .023986817 .3939972 .033996583 .3939972 .067993167 .3939972 .07499695 .38398744 .07499695 .33699037V-.13101197C.07499695-.18400574 .06399536-.1940155 .004989624-.2000122V-.2170105M.15899658 .33399964C.15899658 .3639984 .21499634 .3999939 .26098634 .3999939 .33499146 .3999939 .38398744 .32398988 .38398744 .20698548 .38398744 .09700012 .33499146 .021987915 .2630005 .021987915 .21598816 .021987915 .15899658 .057998659 .15899658 .08799744V.33399964Z"/>
<path id="font_38_9" d="M.29499818 .6759949C.22099304 .6269989 .19099427 .60198977 .1539917 .55599978 .08299255 .46899415 .04798889 .36898805 .04798889 .2519989 .04798889 .12399292 .084991458 .026992798 .17298889-.07501221 .21398926-.1230011 .23999024-.14500427 .2919922-.17700196L.3039856-.16101074C.22399903-.0980072 .19599915-.06201172 .16899109 .011993408 .14498902 .07899475 .13398743 .1539917 .13398743 .25498963 .13398743 .3600006 .14698792 .44299317 .17399597 .5039978 .20199585 .56599429 .23199463 .60198977 .3039856 .6599884L.29499818 .6759949Z"/>
<path id="font_38_10" d="M.037994386-.17700196C.11199951-.12800598 .14199829-.103012088 .1789856-.057006837 .25 .02999878 .2849884 .12998963 .2849884 .24699402 .2849884 .375 .24798584 .47200013 .1599884 .57398989 .11898804 .621994 .09298706 .6439972 .040985109 .6759949L.0289917 .6599884C.10899353 .5970001 .13598633 .56199648 .1639862 .4869995 .18798828 .41999818 .19898987 .34498597 .19898987 .24398804 .19898987 .13899231 .18598938 .056991579 .15899658-.0040130617 .13198853-.06600952 .100997928-.103012088 .0289917-.16101074L.037994386-.17700196Z"/>
<path id="font_45_19" d="M.47799684 .21099854H.45399476C.4249878 .13999939 .4139862 .13398743 .31098939 .1329956H.1599884L.32199098 .2869873C.40098573 .3619995 .43598939 .42900086 .43598939 .5049896 .43598939 .6119995 .3600006 .6879883 .25099183 .6879883 .20098877 .6879883 .15299988 .66799929 .117996219 .6319885 .07899475 .59298709 .05899048 .5589905 .0309906 .48399354H.05899048C.08999634 .5469971 .1269989 .57398989 .18099976 .57398989 .22499085 .57398989 .25898744 .5549927 .27999879 .5189972 .2919922 .49798585 .2999878 .46998597 .2999878 .44699098 .2999878 .40299989 .2809906 .34799195 .24899292 .29899598 .19799805 .22200012 .16299439 .1789856 .016998291 .022994996V0H.43299867L.47799684 .21099854Z"/>
<path id="font_45_17" d="M.25 .6879883C.18499756 .6879883 .11898804 .6439972 .07798767 .57199099 .04598999 .5169983 .023986817 .4229889 .023986817 .33999635 .023986817 .1329956 .117996219-.013000488 .25099183-.013000488 .3809967-.013000488 .47599793 .1349945 .47599793 .33699037 .47599793 .5369873 .3789978 .6879883 .25 .6879883M.31799317 .22200012C.31799317 .16299439 .30999757 .084991458 .30099488 .057998659 .2899933 .0289917 .27398683 .01499939 .25099183 .01499939 .20098877 .01499939 .18199158 .07299805 .18199158 .22200012V.45098878C.18199158 .6029968 .19999695 .6599884 .24899292 .6599884 .2979889 .6599884 .31799317 .59799197 .31799317 .45098878V.22200012Z"/>
<path id="font_45_15" d="M.125 .1559906C.07899475 .1559906 .040985109 .117996219 .040985109 .07199097 .040985109 .023986817 .07699585-.013000488 .12399292-.013000488 .17199707-.013000488 .20999146 .022994996 .20999146 .069992069 .20999146 .117996219 .17199707 .1559906 .125 .1559906Z"/>
<path id="font_45_1" d=""/>
<path id="font_45_78" d="M.81399539 .023986817C.776001 .024993897 .7630005 .039993287 .7639923 .08099365V.33198548C.7639923 .41799928 .71099856 .47299195 .6289978 .47299195 .57199099 .47299195 .5329895 .44999696 .48199464 .38598634 .45199586 .44898988 .4169922 .47299195 .35398866 .47299195 .2899933 .47299195 .24499512 .44599916 .20698548 .38598634V.46099855H.015991211V.43699647C.057998659 .43199159 .069992069 .41999818 .070999149 .37799073V.083999637C.069992069 .041992189 .05999756 .0309906 .015991211 .023986817V0H.2559967V.023986817C.22200012 .027999878 .20999146 .041992189 .20999146 .08099365V.34799195C.20999146 .35398866 .22599793 .37199403 .23899842 .3829956 .2599945 .39898683 .27598573 .4059906 .2939911 .4059906 .33299256 .4059906 .34799195 .3829956 .34799195 .32299806V.08099365C.34899903 .041992189 .33599855 .026992798 .2999878 .023986817V0H.5339966V.023986817C.5 .026992798 .4869995 .042999269 .4869995 .08099365V.34799195C.4869995 .35299684 .5029907 .37199403 .5159912 .38198854 .5379944 .39898683 .55400088 .4059906 .57199099 .4059906 .6100006 .4059906 .625 .38198854 .625 .32299806V.08099365C.6259918 .040985109 .61299136 .025985718 .57598879 .023986817V0H.81399539V.023986817Z"/>
<path id="font_45_84" d="M.33999635 .32598878V.47099305H.31799317C.31199647 .45599366 .30599977 .45098878 .29299928 .45098878 .2869873 .45098878 .27799989 .45298768 .2619934 .45799256 .22999573 .46899415 .20698548 .47299195 .18399048 .47299195 .09298706 .47299195 .026992798 .41099549 .026992798 .32699586 .026992798 .26098634 .067993167 .21499634 .16899109 .17199707 .23799134 .14199829 .2649994 .116989139 .2649994 .084991458 .2649994 .04598999 .23498535 .019989014 .18998719 .019989014 .11999512 .019989014 .07398987 .06498718 .052993776 .1519928H.024993897V-.013000488H.049987794C.06098938 .008987427 .066986087 .01499939 .07598877 .01499939 .08099365 .01499939 .08898926 .0129852299 .09899902 .008987427 .12799073-.0030059815 .17799378-.014007568 .20698548-.014007568 .2979889-.014007568 .36099244 .04798889 .36099244 .13798523 .36099244 .20899964 .32299806 .2519989 .22299195 .2939911 .15499878 .32299806 .1269989 .34799195 .1269989 .38198854 .1269989 .4149933 .15499878 .43998719 .19299317 .43998719 .21998596 .43998719 .24598694 .42900086 .2679901 .4079895 .2889862 .3880005 .2999878 .36999513 .31498719 .32598878H.33999635Z"/>
<path id="font_45_21" d="M.4119873 .25498963V.6879883H.33198548L.272995 .61099246C.14698792 .44699098 .07899475 .35198976 .018997193 .25698854V.14399719H.2669983V0H.4119873V.14399719H.47499085V.25498963H.4119873M.2689972 .25498963H.05999756L.2689972 .5519867V.25498963Z"/>
<path id="font_45_26" d="M.0309906-.013000488C.17098999 .0069885256 .23899842 .03199768 .31698609 .09098816 .4189911 .16699219 .47299195 .2749939 .47299195 .4019928 .47299195 .57499697 .3809967 .6879883 .24099732 .6879883 .115997318 .6879883 .025985718 .58898928 .025985718 .45199586 .025985718 .33399964 .09899902 .2539978 .20799256 .2539978 .24699402 .2539978 .2709961 .25898744 .29899598 .272995 .2559967 .12098694 .1749878 .041992189 .0309906 .0129852299V-.013000488M.23799134 .6609955C.2639923 .6609955 .27999879 .651001 .2919922 .6269989 .30699159 .59999087 .31698609 .5289917 .31698609 .45799256 .31698609 .43099977 .31498719 .39898683 .31199647 .35398866 .30999757 .34098817 .30999757 .33198548 .30899049 .32798768 .30799867 .31498719 .30699159 .30999757 .3039856 .30799867 .29599 .30299378 .27799989 .29899598 .2630005 .29899598 .20098877 .29899598 .17799378 .35699464 .17799378 .5149994 .17799378 .6309967 .18998719 .6609955 .23799134 .6609955Z"/>
<path id="font_45_23" d="M.46998597 .6879883C.33699037 .6689911 .27398683 .6469879 .19898987 .59498599 .08699036 .5179901 .027999878 .4059906 .027999878 .272995 .027999878 .099990848 .11898804-.013000488 .2599945-.013000488 .38398744-.013000488 .47499085 .085998538 .47499085 .22200012 .47499085 .34298707 .4019928 .42099 .28799439 .42099 .2559967 .42099 .23399353 .4169922 .20399475 .4039917 .24099732 .5509949 .32398988 .6319885 .46998597 .6619873V.6879883M.23298645 .37599183C.2999878 .37599183 .32299806 .32199098 .32299806 .16299439 .32299806 .042999269 .31098939 .01399231 .2619934 .01399231 .23799134 .01399231 .22099304 .023986817 .21099854 .042999269 .19400025 .07598877 .18399048 .14898682 .18399048 .24198914 .18399048 .3039856 .18998719 .36099244 .19699097 .3659973 .20498657 .37199403 .21798706 .37599183 .23298645 .37599183Z"/>
<path id="font_45_22" d="M.14898682 .548996H.4269867L.46998597 .6759949H.147995L.050994874 .33099366C.1459961 .32398988 .18598938 .31799317 .23098755 .3039856 .31999208 .27598573 .37298585 .21998596 .37298585 .15299988 .37298585 .09700012 .32899476 .052993776 .272995 .052993776 .25 .052993776 .22299195 .06498718 .18299866 .09498596 .13999939 .1269989 .10998535 .13999939 .083999637 .13999939 .04798889 .13999939 .021987915 .114990238 .021987915 .07998657 .021987915 .026992798 .07998657-.008010864 .16899109-.008010864 .33399964-.008010864 .45098878 .09199524 .45098878 .23298645 .45098878 .33699037 .3869934 .4169922 .27799989 .44799806 .23999024 .45899964 .20899964 .46299745 .1269989 .46798707L.14898682 .548996Z"/>
<path id="font_45_24" d="M.47698976 .6759949H.06098938L.016998291 .45399476H.041992189C.05899048 .5159912 .08799744 .5399933 .13999939 .5389862H.34700013L.14698792 0H.24198914L.47698976 .6759949Z"/>
<path id="font_45_18" d="M.44198609 .023986817C.35198976 .024993897 .33399964 .040985109 .33399964 .117996219V.6879883H.31698609L.06498718 .57899478V.5529938C.07398987 .55599978 .08099365 .5589905 .084991458 .5609894 .11199951 .57099917 .13699341 .5779877 .1499939 .5779877 .1749878 .5779877 .18598938 .55599978 .18598938 .5089874V.12399292C.18699646 .042999269 .1659851 .024993897 .066986087 .023986817V0H.44198609V.023986817Z"/>
<clipPath id="clip_46">
<path transform="matrix(.014,0,0,-.014,358.9616,-55.218996)" d="M-1070-416H1976V1175H-1070Z"/>
</clipPath>
<path id="font_38_53" d="M.45199586 .018997193C.36999513 .022994996 .35699464 .034988405 .35598756 .10899353V.6199951H.4099884C.526001 .6179962 .5469971 .6009979 .56900027 .49198915H.59298709L.58699038 .6619873H.022994996L.016998291 .49198915H.040985109C.06399536 .6009979 .084991458 .6179962 .19999695 .6199951H.2539978V.11999512C.25299073 .033996583 .24398804 .023986817 .1599884 .018997193V0H.45199586V.018997193Z"/>
<path id="font_38_52" d="M.44699098 .6759949H.42599488C.42199708 .6539917 .41099549 .6419983 .3939972 .6419983 .38398744 .6419983 .36698915 .6459961 .34999085 .6539917 .31298829 .66799929 .27598573 .6759949 .24299622 .6759949 .20098877 .6759949 .15699768 .6589966 .12399292 .6299896 .08898926 .598999 .070999149 .5569916 .070999149 .5049896 .070999149 .4249878 .114990238 .36898805 .22698975 .30999757 .29899598 .2709961 .35099793 .23098755 .37599183 .19299317 .3849945 .17999268 .3899994 .15899658 .3899994 .13398743 .3899994 .067993167 .33999635 .021987915 .2669983 .021987915 .1769867 .021987915 .114990238 .07699585 .06498718 .19898987H.041992189L.07199097-.013000488H.09399414C.09498596 .005996704 .10699463 .019989014 .12199402 .019989014 .1329956 .019989014 .1499939 .015991211 .16899109 .008987427 .20698548-.006011963 .24798584-.014007568 .2869873-.014007568 .40299989-.014007568 .4909973 .06498718 .4909973 .16899109 .4909973 .25099183 .43598939 .31498719 .3039856 .3869934 .19898987 .44400025 .15699768 .48799134 .15699768 .54299929 .15699768 .59799197 .19898987 .6349945 .26098634 .6349945 .30599977 .6349945 .34799195 .6159973 .3829956 .5799866 .4139862 .5479889 .42799378 .5219879 .44400025 .46299745H.46899415L.44699098 .6759949Z"/>
<path id="font_38_42" d="M.017990113 0H.31498719V.018997193C.23298645 .020996094 .21899414 .034988405 .21699524 .10899353V.5529938C.21899414 .6279907 .23199463 .6399994 .31498719 .6429901V.6619873H.017990113V.6429901C.102996829 .6380005 .11399841 .6279907 .114990238 .5529938V.10899353C.11399841 .032989503 .101989749 .021987915 .017990113 .018997193V0Z"/>
<path id="font_38_87" d="M.47698976 .44999696H.33799745V.43499757C.36999513 .43199159 .3849945 .42199708 .3849945 .40299989 .3849945 .3929901 .3829956 .3829956 .3789978 .37298585L.27999879 .11399841 .17799378 .36999513C.17199707 .38398744 .16899109 .397995 .16899109 .40699769 .16899109 .4249878 .17999268 .43199159 .21499634 .43499757V.44999696H.018997193V.43499757C.056991579 .43299867 .06399536 .4229889 .10998535 .31999208L.22999573 .032989503C.23199463 .026992798 .23498535 .019989014 .23799134 .011993408 .24099732 .0039978029 .24398804-.0030059815 .24699402-.008010864 .24899292-.012008667 .25299073-.014007568 .2559967-.014007568 .2619934-.014007568 .2689972-.0010070801 .28399659 .035995485L.4119873 .35699464C.44099427 .4249878 .44699098 .43199159 .47698976 .43499757V.44999696Z"/>
<path id="font_38_38" d="M.5970001 .16899109H.56900027C.5209961 .06298828 .47599793 .037994386 .33299256 .036987306H.30599977C.20199585 .039993287 .20098877 .040985109 .20098877 .07998657V.32699586H.35499574C.43899537 .32499696 .45199586 .31298829 .46499635 .23098755H.48799134V.46299745H.46499635C.45298768 .38198854 .43899537 .36999513 .35499574 .36799623H.20098877V.58999636C.20199585 .6199951 .20599365 .6239929 .23399353 .6239929H.36898805C.4850006 .621994 .5049896 .60798647 .5209961 .5189972H.54599L.54299929 .6619873H.011993408V.6429901C.084991458 .6380005 .09700012 .625 .09899902 .5529938V.10899353C.09700012 .036987306 .083999637 .022994996 .011993408 .018997193V0H.5519867L.5970001 .16899109Z"/>
<path id="font_38_89" d="M.27799989 0H.47898866V.01499939C.44799806 .01499939 .42799378 .0309906 .39698792 .07499695L.2689972 .2709961 .35198976 .3909912C.37098695 .41799928 .3999939 .43299867 .43299867 .43499757V.44999696H.2749939V.43499757C.30499269 .43299867 .31498719 .4269867 .31498719 .41299439 .31498719 .40098573 .30299378 .3789978 .27799989 .34799195 .272995 .34199525 .26098634 .32398988 .24798584 .3039856L.23999024 .31599427C.22499085 .33898927 .21598816 .35198976 .21398926 .35598756 .19499207 .3869934 .18798828 .40299989 .18798828 .41299439 .18798828 .42799378 .20098877 .43399049 .23098755 .43499757V.44999696H.023986817V.43499757H.032989503C.06298828 .43499757 .07899475 .42199708 .10998535 .375L.20399475 .23098755 .08999634 .06599426C.05999756 .024993897 .049987794 .017990113 .016998291 .01499939V0H.1619873V.01499939C.1329956 .01499939 .12199402 .019989014 .12199402 .032989503 .12199402 .039993287 .12799073 .052993776 .14199829 .07398987L.22099304 .19699097 .31199647 .056991579C.31599427 .050994874 .31799317 .04598999 .31799317 .038986207 .31799317 .020996094 .31098939 .016998291 .27799989 .01499939V0Z"/>
<clipPath id="clip_47">
<path transform="matrix(1,0,0,-1,-1.0004,355.181)" d="M-147.303 58.851H662.864V346.648H-147.303Z"/>
</clipPath>
<clipPath id="clip_48">
<path transform="matrix(1,0,0,-1,-1.0004,355.181)" d="M-193.122 58.851H617.045V346.648H-193.122Z"/>
</clipPath>
<clipPath id="clip_49">
<path transform="matrix(1,0,0,-1,-1.0004,355.181)" d="M-102.071 58.851H708.096V346.648H-102.071Z"/>
</clipPath>
<clipPath id="clip_50">
<path transform="matrix(1,0,0,-1,-1.0004,355.181)" d="M-147.303 59.759H662.864V347.556H-147.303Z"/>
</clipPath>
<clipPath id="clip_51">
<path transform="matrix(1,0,0,-1,-1.0004,355.181)" d="M-102.071 59.759H708.096V347.556H-102.071Z"/>
</clipPath>
<clipPath id="clip_52">
<path transform="matrix(1,0,0,-1,-1.0004,355.181)" d="M-53.314 59.759H756.85299V347.556H-53.314Z"/>
</clipPath>
</defs>
<g clip-path="url(#clip_1)">
<g clip-path="url(#clip_2)">
<path transform="matrix(1.46799,0,0,-.803633,76.49942,296.00886)" d="M0 0H45.61V0H0Z" fill="#4e79a7"/>
<path transform="matrix(1.46799,0,0,-.803633,76.49942,296.00886)" stroke-width=".5" stroke-linecap="butt" stroke-miterlimit="10" stroke-linejoin="miter" fill="none" stroke="#ffffff" d="M0 0H45.61V0H0Z"/>
</g>
<g clip-path="url(#clip_3)">
<path transform="matrix(1.46799,0,0,-.803633,164.00542,296.00886)" d="M0 0H45.61V.33H0Z" fill="#4e79a7"/>
<path transform="matrix(1.46799,0,0,-.803633,164.00542,296.00886)" stroke-width=".5" stroke-linecap="butt" stroke-miterlimit="10" stroke-linejoin="miter" fill="none" stroke="#ffffff" d="M0 0H45.61V.33H0Z"/>
</g>
<g clip-path="url(#clip_4)">
<path transform="matrix(1.46799,0,0,-.803633,250.33492,296.00886)" d="M0 0H45.61V.34H0Z" fill="#4e79a7"/>
<path transform="matrix(1.46799,0,0,-.803633,250.33492,296.00886)" stroke-width=".5" stroke-linecap="butt" stroke-miterlimit="10" stroke-linejoin="miter" fill="none" stroke="#ffffff" d="M0 0H45.61V.34H0Z"/>
</g>
<g clip-path="url(#clip_5)">
<path transform="matrix(1.46799,0,0,-.803633,335.49046,296.00886)" d="M0 0H45.61V.34H0Z" fill="#4e79a7"/>
<path transform="matrix(1.46799,0,0,-.803633,335.49046,296.00886)" stroke-width=".5" stroke-linecap="butt" stroke-miterlimit="10" stroke-linejoin="miter" fill="none" stroke="#ffffff" d="M0 0H45.61V.34H0Z"/>
</g>
<g clip-path="url(#clip_6)">
<path transform="matrix(1.46799,0,0,-.803633,424.17146,296.00886)" d="M0 0H45.61V.33H0Z" fill="#4e79a7"/>
<path transform="matrix(1.46799,0,0,-.803633,424.17146,296.00886)" stroke-width=".5" stroke-linecap="butt" stroke-miterlimit="10" stroke-linejoin="miter" fill="none" stroke="#ffffff" d="M0 0H45.61V.33H0Z"/>
</g>
<g clip-path="url(#clip_7)">
<path transform="matrix(1.46799,0,0,-.803633,512.26296,296.00886)" d="M0 0H45.61V.33H0Z" fill="#4e79a7"/>
<path transform="matrix(1.46799,0,0,-.803633,512.26296,296.00886)" stroke-width=".5" stroke-linecap="butt" stroke-miterlimit="10" stroke-linejoin="miter" fill="none" stroke="#ffffff" d="M0 0H45.61V.33H0Z"/>
</g>
<g clip-path="url(#clip_8)">
<path transform="matrix(1.46799,0,0,-.803633,76.49942,296.00886)" d="M0 0H45.61V0H0Z" fill="#f28e2b"/>
<path transform="matrix(1.46799,0,0,-.803633,76.49942,296.00886)" stroke-width=".5" stroke-linecap="butt" stroke-miterlimit="10" stroke-linejoin="miter" fill="none" stroke="#ffffff" d="M0 0H45.61V0H0Z"/>
</g>
<g clip-path="url(#clip_9)">
<path transform="matrix(1.46799,0,0,-.803633,164.00542,295.73963)" d="M0 0H45.61V8.43H0Z" fill="#5780ff"/>
<path transform="matrix(1.46799,0,0,-.803633,164.00542,295.73963)" stroke-width=".5" stroke-linecap="butt" stroke-miterlimit="10" stroke-linejoin="miter" fill="none" stroke="#ffffff" d="M0 0H45.61V8.43H0Z"/>
</g>
<g clip-path="url(#clip_10)">
<path transform="matrix(1.46799,0,0,-.803633,250.33492,295.73805)" d="M0 0H45.61V19.11H0Z" fill="#5780ff"/>
<path transform="matrix(1.46799,0,0,-.803633,250.33492,295.73805)" stroke-width=".5" stroke-linecap="butt" stroke-miterlimit="10" stroke-linejoin="miter" fill="none" stroke="#ffffff" d="M0 0H45.61V19.11H0Z"/>
</g>
<g clip-path="url(#clip_11)">
<path transform="matrix(1.46799,0,0,-.803633,335.49046,295.734)" d="M0 0H45.61V56.39H0Z" fill="#f28e2b"/>
<path transform="matrix(1.46799,0,0,-.803633,335.49046,295.734)" stroke-width=".5" stroke-linecap="butt" stroke-miterlimit="10" stroke-linejoin="miter" fill="none" stroke="#ffffff" d="M0 0H45.61V56.39H0Z"/>
</g>
<g clip-path="url(#clip_12)">
<path transform="matrix(1.46799,0,0,-.803633,424.17146,295.74607)" d="M0 0H45.61V185.57H0Z" fill="#f28e2b"/>
<path transform="matrix(1.46799,0,0,-.803633,424.17146,295.74607)" stroke-width=".5" stroke-linecap="butt" stroke-miterlimit="10" stroke-linejoin="miter" fill="none" stroke="#ffffff" d="M0 0H45.61V185.57H0Z"/>
</g>
<g clip-path="url(#clip_13)">
<path transform="matrix(1.46799,0,0,-.803633,512.26296,295.73963)" d="M0 0H45.61V5.81H0Z" fill="#f28e2b"/>
<path transform="matrix(1.46799,0,0,-.803633,512.26296,295.73963)" stroke-width=".5" stroke-linecap="butt" stroke-miterlimit="10" stroke-linejoin="miter" fill="none" stroke="#ffffff" d="M0 0H45.61V5.81H0Z"/>
</g>
<g clip-path="url(#clip_14)">
<path transform="matrix(1.46799,0,0,-.803633,76.49942,296.00886)" d="M0 0H45.61V.27H0Z" fill="#e15759"/>
<path transform="matrix(1.46799,0,0,-.803633,76.49942,296.00886)" stroke-width=".5" stroke-linecap="butt" stroke-miterlimit="10" stroke-linejoin="miter" fill="none" stroke="#ffffff" d="M0 0H45.61V.27H0Z"/>
</g>
<g clip-path="url(#clip_15)">
<path transform="matrix(1.46799,0,0,-.803633,164.00542,288.9626)" d="M0 0H45.61V.86H0Z" fill="#e15759"/>
<path transform="matrix(1.46799,0,0,-.803633,164.00542,288.9626)" stroke-width=".5" stroke-linecap="butt" stroke-miterlimit="10" stroke-linejoin="miter" fill="none" stroke="#ffffff" d="M0 0H45.61V.86H0Z"/>
</g>
<g clip-path="url(#clip_16)">
<path transform="matrix(1.46799,0,0,-.803633,250.33492,280.3822)" d="M0 0H45.61V1.05H0Z" fill="#e15759"/>
<path transform="matrix(1.46799,0,0,-.803633,250.33492,280.3822)" stroke-width=".5" stroke-linecap="butt" stroke-miterlimit="10" stroke-linejoin="miter" fill="none" stroke="#ffffff" d="M0 0H45.61V1.05H0Z"/>
</g>
<g clip-path="url(#clip_17)">
<path transform="matrix(1.46799,0,0,-.803633,335.49046,250.41715)" d="M0 0H45.61V1.45H0Z" fill="#e15759"/>
<path transform="matrix(1.46799,0,0,-.803633,335.49046,250.41715)" stroke-width=".5" stroke-linecap="butt" stroke-miterlimit="10" stroke-linejoin="miter" fill="none" stroke="#ffffff" d="M0 0H45.61V1.45H0Z"/>
</g>
<g clip-path="url(#clip_18)">
<path transform="matrix(1.46799,0,0,-.803633,424.17146,146.6151)" d="M0 0H45.61V3.74H0Z" fill="#e15759"/>
<path transform="matrix(1.46799,0,0,-.803633,424.17146,146.6151)" stroke-width=".5" stroke-linecap="butt" stroke-miterlimit="10" stroke-linejoin="miter" fill="none" stroke="#ffffff" d="M0 0H45.61V3.74H0Z"/>
</g>
<g clip-path="url(#clip_19)">
<path transform="matrix(1.46799,0,0,-.803633,512.26296,291.07215)" d="M0 0H45.61V.86H0Z" fill="#e15759"/>
<path transform="matrix(1.46799,0,0,-.803633,512.26296,291.07215)" stroke-width=".5" stroke-linecap="butt" stroke-miterlimit="10" stroke-linejoin="miter" fill="none" stroke="#ffffff" d="M0 0H45.61V.86H0Z"/>
</g>
<g clip-path="url(#clip_20)">
<path transform="matrix(1.46799,0,0,-.803633,76.49942,295.79267)" d="M0 0H45.61V0H0Z" fill="#76b7b2"/>
<path transform="matrix(1.46799,0,0,-.803633,76.49942,295.79267)" stroke-width=".5" stroke-linecap="butt" stroke-miterlimit="10" stroke-linejoin="miter" fill="none" stroke="#ffffff" d="M0 0H45.61V0H0Z"/>
</g>
<g clip-path="url(#clip_21)">
<path transform="matrix(1.46799,0,0,-.803633,164.00542,288.27149)" d="M0 0H45.61V68.57H0Z" fill="#8acf57"/>
<path transform="matrix(1.46799,0,0,-.803633,164.00542,288.27149)" stroke-width=".5" stroke-linecap="butt" stroke-miterlimit="10" stroke-linejoin="miter" fill="none" stroke="#ffffff" d="M0 0H45.61V68.57H0Z"/>
</g>
<g clip-path="url(#clip_22)">
<path transform="matrix(1.46799,0,0,-.803633,250.33492,279.54)" d="M0 0H45.61V75.71H0Z" fill="#8acf57"/>
<path transform="matrix(1.46799,0,0,-.803633,250.33492,279.54)" stroke-width=".5" stroke-linecap="butt" stroke-miterlimit="10" stroke-linejoin="miter" fill="none" stroke="#ffffff" d="M0 0H45.61V75.71H0Z"/>
</g>
<g clip-path="url(#clip_23)">
<path transform="matrix(1.46799,0,0,-.803633,335.49046,249.25269)" d="M0 0H45.61V93.78H0Z" fill="#8acf57"/>
<path transform="matrix(1.46799,0,0,-.803633,335.49046,249.25269)" stroke-width=".5" stroke-linecap="butt" stroke-miterlimit="10" stroke-linejoin="miter" fill="none" stroke="#ffffff" d="M0 0H45.61V93.78H0Z"/>
</g>
<g clip-path="url(#clip_24)">
<path transform="matrix(1.46799,0,0,-.803633,424.17146,143.61353)" d="M0 0H45.61V97.54H0Z" fill="#8acf57"/>
<path transform="matrix(1.46799,0,0,-.803633,424.17146,143.61353)" stroke-width=".5" stroke-linecap="butt" stroke-miterlimit="10" stroke-linejoin="miter" fill="none" stroke="#ffffff" d="M0 0H45.61V97.54H0Z"/>
</g>
<g clip-path="url(#clip_25)">
<path transform="matrix(1.46799,0,0,-.803633,512.26296,290.381)" d="M0 0H45.61V86.07H0Z" fill="#8acf57"/>
<path transform="matrix(1.46799,0,0,-.803633,512.26296,290.381)" stroke-width=".5" stroke-linecap="butt" stroke-miterlimit="10" stroke-linejoin="miter" fill="none" stroke="#ffffff" d="M0 0H45.61V86.07H0Z"/>
</g>
<g clip-path="url(#clip_26)">
<path transform="matrix(1.46799,0,0,-.803633,76.49942,295.79267)" d="M0 0H45.61V0H0Z" fill="#59a14f"/>
<path transform="matrix(1.46799,0,0,-.803633,76.49942,295.79267)" stroke-width=".5" stroke-linecap="butt" stroke-miterlimit="10" stroke-linejoin="miter" fill="none" stroke="#ffffff" d="M0 0H45.61V0H0Z"/>
</g>
<g clip-path="url(#clip_27)">
<path transform="matrix(1.46799,0,0,-.803633,164.00542,233.16394)" d="M0 0H45.61V.16H0Z" fill="#59a14f"/>
<path transform="matrix(1.46799,0,0,-.803633,164.00542,233.16394)" stroke-width=".5" stroke-linecap="butt" stroke-miterlimit="10" stroke-linejoin="miter" fill="none" stroke="#ffffff" d="M0 0H45.61V.16H0Z"/>
</g>
<g clip-path="url(#clip_28)">
<path transform="matrix(1.46799,0,0,-.803633,250.33492,218.69776)" d="M0 0H45.61V.21H0Z" fill="#59a14f"/>
<path transform="matrix(1.46799,0,0,-.803633,250.33492,218.69776)" stroke-width=".5" stroke-linecap="butt" stroke-miterlimit="10" stroke-linejoin="miter" fill="none" stroke="#ffffff" d="M0 0H45.61V.21H0Z"/>
</g>
<g clip-path="url(#clip_29)">
<path transform="matrix(1.46799,0,0,-.803633,335.49046,173.88718)" d="M0 0H45.61V.31H0Z" fill="#59a14f"/>
<path transform="matrix(1.46799,0,0,-.803633,335.49046,173.88718)" stroke-width=".5" stroke-linecap="butt" stroke-miterlimit="10" stroke-linejoin="miter" fill="none" stroke="#ffffff" d="M0 0H45.61V.31H0Z"/>
</g>
<g clip-path="url(#clip_30)">
<path transform="matrix(1.46799,0,0,-.803633,424.17146,65.22394)" d="M0 0H45.61V.88H0Z" fill="#59a14f"/>
<path transform="matrix(1.46799,0,0,-.803633,424.17146,65.22394)" stroke-width=".5" stroke-linecap="butt" stroke-miterlimit="10" stroke-linejoin="miter" fill="none" stroke="#ffffff" d="M0 0H45.61V.88H0Z"/>
</g>
<g clip-path="url(#clip_31)">
<path transform="matrix(1.46799,0,0,-.803633,512.26296,221.21393)" d="M0 0H45.61V.16H0Z" fill="#59a14f"/>
<path transform="matrix(1.46799,0,0,-.803633,512.26296,221.21393)" stroke-width=".5" stroke-linecap="butt" stroke-miterlimit="10" stroke-linejoin="miter" fill="none" stroke="#ffffff" d="M0 0H45.61V.16H0Z"/>
</g>
<g clip-path="url(#clip_32)">
<path transform="matrix(1.46799,0,0,-.803633,76.49942,295.79267)" d="M0 0H45.61V52.98H0Z" fill="#ffc057"/>
<path transform="matrix(1.46799,0,0,-.803633,76.49942,295.79267)" stroke-width=".5" stroke-linecap="butt" stroke-miterlimit="10" stroke-linejoin="miter" fill="none" stroke="#ffffff" d="M0 0H45.61V52.98H0Z"/>
</g>
<g clip-path="url(#clip_33)">
<path transform="matrix(1.46799,0,0,-.803633,164.00542,233.03134)" d="M0 0H45.61V52.54H0Z" fill="#ffc057"/>
<path transform="matrix(1.46799,0,0,-.803633,164.00542,233.03134)" stroke-width=".5" stroke-linecap="butt" stroke-miterlimit="10" stroke-linejoin="miter" fill="none" stroke="#ffffff" d="M0 0H45.61V52.54H0Z"/>
</g>
<g clip-path="url(#clip_34)">
<path transform="matrix(1.46799,0,0,-.803633,250.33492,218.5282)" d="M0 0H45.61V52.02H0Z" fill="#ffbf91"/>
<path transform="matrix(1.46799,0,0,-.803633,250.33492,218.5282)" stroke-width=".5" stroke-linecap="butt" stroke-miterlimit="10" stroke-linejoin="miter" fill="none" stroke="#ffffff" d="M0 0H45.61V52.02H0Z"/>
</g>
<g clip-path="url(#clip_35)">
<path transform="matrix(1.46799,0,0,-.803633,335.49046,173.63404)" d="M0 0H45.61V53.28H0Z" fill="#ffbf91"/>
<path transform="matrix(1.46799,0,0,-.803633,335.49046,173.63404)" stroke-width=".5" stroke-linecap="butt" stroke-miterlimit="10" stroke-linejoin="miter" fill="none" stroke="#ffffff" d="M0 0H45.61V53.28H0Z"/>
</g>
<g clip-path="url(#clip_36)">
<path transform="matrix(1.46799,0,0,-.803633,424.17146,64.51352)" d="M0 0H45.61V53.01H0Z" fill="#ffbf91"/>
<path transform="matrix(1.46799,0,0,-.803633,424.17146,64.51352)" stroke-width=".5" stroke-linecap="butt" stroke-miterlimit="10" stroke-linejoin="miter" fill="none" stroke="#ffffff" d="M0 0H45.61V53.01H0Z"/>
</g>
<g clip-path="url(#clip_37)">
<path transform="matrix(1.46799,0,0,-.803633,512.26296,221.08133)" d="M0 0H45.61V52.54H0Z" fill="#ffc057"/>
<path transform="matrix(1.46799,0,0,-.803633,512.26296,221.08133)" stroke-width=".5" stroke-linecap="butt" stroke-miterlimit="10" stroke-linejoin="miter" fill="none" stroke="#ffffff" d="M0 0H45.61V52.54H0Z"/>
</g>
<path transform="matrix(1.46799,0,0,-.803633,109.97841,296.00886)" d="M0 0V-3.49"/>
<path transform="matrix(1.46799,0,0,-.803633,109.97841,296.00886)" stroke-width=".8" stroke-linecap="butt" stroke-linejoin="round" fill="none" stroke="#000000" d="M0 0V-3.49"/>
<use data-text="P" xlink:href="#font_38_49" transform="matrix(17.615881,0,0,-17.615881,74.218608,315.843)"/>
<use data-text="P" xlink:href="#font_38_49" transform="matrix(17.615881,0,0,-17.615881,84.01304,315.843)"/>
<use data-text="O" xlink:href="#font_38_48" transform="matrix(17.615881,0,0,-17.615881,93.80747,315.843)"/>
<use data-text=" " xlink:href="#font_38_1" transform="matrix(17.615881,0,0,-17.615881,106.52614,315.843)"/>
<use data-text="o" xlink:href="#font_38_80" transform="matrix(17.615881,0,0,-17.615881,110.93011,315.843)"/>
<use data-text="n" xlink:href="#font_38_79" transform="matrix(17.615881,0,0,-17.615881,119.738048,315.843)"/>
<use data-text="l" xlink:href="#font_38_77" transform="matrix(17.615881,0,0,-17.615881,128.54599,315.843)"/>
<use data-text="y" xlink:href="#font_38_90" transform="matrix(17.615881,0,0,-17.615881,133.4432,315.843)"/>
<path transform="matrix(1.46799,0,0,-.803633,197.48293,296.00886)" d="M0 0V-3.49"/>
<path transform="matrix(1.46799,0,0,-.803633,197.48293,296.00886)" stroke-width=".8" stroke-linecap="butt" stroke-linejoin="round" fill="none" stroke="#000000" d="M0 0V-3.49"/>
<use data-text="4" xlink:href="#font_38_21" transform="matrix(17.615881,0,0,-17.615881,179.86661,314.627)"/>
<use data-text="&#x00d7;" xlink:href="#font_38_168" transform="matrix(17.615881,0,0,-17.615881,190.1404,314.627)"/>
<use data-text="2" xlink:href="#font_38_19" transform="matrix(17.615881,0,0,-17.615881,201.10057,314.627)"/>
<path transform="matrix(1.46799,0,0,-.803633,283.81245,296.00886)" d="M0 0V-3.49"/>
<path transform="matrix(1.46799,0,0,-.803633,283.81245,296.00886)" stroke-width=".8" stroke-linecap="butt" stroke-linejoin="round" fill="none" stroke="#000000" d="M0 0V-3.49"/>
<use data-text="8" xlink:href="#font_38_25" transform="matrix(17.615881,0,0,-17.615881,266.1966,314.627)"/>
<use data-text="&#x00d7;" xlink:href="#font_38_168" transform="matrix(17.615881,0,0,-17.615881,276.47038,314.627)"/>
<use data-text="4" xlink:href="#font_38_21" transform="matrix(17.615881,0,0,-17.615881,287.43034,314.627)"/>
<path transform="matrix(1.46799,0,0,-.803633,368.9694,296.00886)" d="M0 0V-3.49"/>
<path transform="matrix(1.46799,0,0,-.803633,368.9694,296.00886)" stroke-width=".8" stroke-linecap="butt" stroke-linejoin="round" fill="none" stroke="#000000" d="M0 0V-3.49"/>
<use data-text="1" xlink:href="#font_38_18" transform="matrix(17.615881,0,0,-17.615881,347.6836,314.627)"/>
<use data-text="6" xlink:href="#font_38_23" transform="matrix(17.615881,0,0,-17.615881,356.48878,314.627)"/>
<use data-text="&#x00d7;" xlink:href="#font_38_168" transform="matrix(17.615881,0,0,-17.615881,366.76255,314.627)"/>
<use data-text="8" xlink:href="#font_38_25" transform="matrix(17.615881,0,0,-17.615881,377.7225,314.627)"/>
<path transform="matrix(1.46799,0,0,-.803633,457.64894,296.00886)" d="M0 0V-3.49"/>
<path transform="matrix(1.46799,0,0,-.803633,457.64894,296.00886)" stroke-width=".8" stroke-linecap="butt" stroke-linejoin="round" fill="none" stroke="#000000" d="M0 0V-3.49"/>
<use data-text="6" xlink:href="#font_38_23" transform="matrix(17.615881,0,0,-17.615881,436.3626,314.627)"/>
<use data-text="4" xlink:href="#font_38_21" transform="matrix(17.615881,0,0,-17.615881,445.16773,314.627)"/>
<use data-text="&#x00d7;" xlink:href="#font_38_168" transform="matrix(17.615881,0,0,-17.615881,455.4415,314.627)"/>
<use data-text="8" xlink:href="#font_38_25" transform="matrix(17.615881,0,0,-17.615881,466.40147,314.627)"/>
<path transform="matrix(1.46799,0,0,-.803633,545.7405,296.00886)" d="M0 0V-3.49"/>
<path transform="matrix(1.46799,0,0,-.803633,545.7405,296.00886)" stroke-width=".8" stroke-linecap="butt" stroke-linejoin="round" fill="none" stroke="#000000" d="M0 0V-3.49"/>
<use data-text="D" xlink:href="#font_38_37" transform="matrix(17.615881,0,0,-17.615881,509.95863,315.843)"/>
<use data-text="i" xlink:href="#font_38_74" transform="matrix(17.615881,0,0,-17.615881,522.67727,315.843)"/>
<use data-text="f" xlink:href="#font_38_71" transform="matrix(17.615881,0,0,-17.615881,527.57449,315.843)"/>
<use data-text="f" xlink:href="#font_38_71" transform="matrix(17.615881,0,0,-17.615881,533.44058,315.843)"/>
<use data-text="u" xlink:href="#font_38_86" transform="matrix(17.615881,0,0,-17.615881,539.30667,315.843)"/>
<use data-text="s" xlink:href="#font_38_84" transform="matrix(17.615881,0,0,-17.615881,548.11459,315.843)"/>
<use data-text="i" xlink:href="#font_38_74" transform="matrix(17.615881,0,0,-17.615881,554.96719,315.843)"/>
<use data-text="o" xlink:href="#font_38_80" transform="matrix(17.615881,0,0,-17.615881,559.8644,315.843)"/>
<use data-text="n" xlink:href="#font_38_79" transform="matrix(17.615881,0,0,-17.615881,568.6723,315.843)"/>
<use data-text="C" xlink:href="#font_38_36" transform="matrix(17.615881,0,0,-17.615881,266.3566,338.45899)"/>
<use data-text="o" xlink:href="#font_38_80" transform="matrix(17.615881,0,0,-17.615881,278.10639,338.45899)"/>
<use data-text="n" xlink:href="#font_38_79" transform="matrix(17.615881,0,0,-17.615881,286.91435,338.45899)"/>
<use data-text="f" xlink:href="#font_38_71" transform="matrix(17.615881,0,0,-17.615881,295.7223,338.45899)"/>
<use data-text="i" xlink:href="#font_38_74" transform="matrix(17.615881,0,0,-17.615881,301.58839,338.45899)"/>
<use data-text="g" xlink:href="#font_38_72" transform="matrix(17.615881,0,0,-17.615881,306.4856,338.45899)"/>
<use data-text="u" xlink:href="#font_38_86" transform="matrix(17.615881,0,0,-17.615881,315.29356,338.45899)"/>
<use data-text="r" xlink:href="#font_38_83" transform="matrix(17.615881,0,0,-17.615881,324.1015,338.45899)"/>
<use data-text="a" xlink:href="#font_38_66" transform="matrix(17.615881,0,0,-17.615881,329.9676,338.45899)"/>
<use data-text="t" xlink:href="#font_38_85" transform="matrix(17.615881,0,0,-17.615881,337.78904,338.45899)"/>
<use data-text="i" xlink:href="#font_38_74" transform="matrix(17.615881,0,0,-17.615881,342.68626,338.45899)"/>
<use data-text="o" xlink:href="#font_38_80" transform="matrix(17.615881,0,0,-17.615881,347.58348,338.45899)"/>
<use data-text="n" xlink:href="#font_38_79" transform="matrix(17.615881,0,0,-17.615881,356.39143,338.45899)"/>
<path transform="matrix(1.46799,0,0,-.803633,61.996976,296.00886)" d="M0 0H-3.49"/>
<path transform="matrix(1.46799,0,0,-.803633,61.996976,296.00886)" stroke-width=".8" stroke-linecap="butt" stroke-linejoin="round" fill="none" stroke="#000000" d="M0 0H-3.49"/>
<use data-text="0" xlink:href="#font_38_17" transform="matrix(17.615635,0,0,-17.615635,42.384599,299.06)"/>
<g clip-path="url(#clip_39)">
<path transform="matrix(.964813,0,0,-.803633,61.703104,253.57462)" stroke-width=".8" stroke-linecap="square" stroke-linejoin="round" fill="none" stroke="#b0b0b0" stroke-opacity=".3" d="M0 0H551.89"/>
</g>
<path transform="matrix(1.46799,0,0,-.803633,61.996976,253.57462)" d="M0 0H-3.49"/>
<path transform="matrix(1.46799,0,0,-.803633,61.996976,253.57462)" stroke-width=".8" stroke-linecap="butt" stroke-linejoin="round" fill="none" stroke="#000000" d="M0 0H-3.49"/>
<use data-text="2" xlink:href="#font_38_19" transform="matrix(17.615635,0,0,-17.615635,33.0496,256.626)"/>
<use data-text="0" xlink:href="#font_38_17" transform="matrix(17.615635,0,0,-17.615635,41.857419,256.626)"/>
<g clip-path="url(#clip_40)">
<path transform="matrix(.964813,0,0,-.803633,61.703104,211.14038)" stroke-width=".8" stroke-linecap="square" stroke-linejoin="round" fill="none" stroke="#b0b0b0" stroke-opacity=".3" d="M0 0H551.89"/>
</g>
<path transform="matrix(1.46799,0,0,-.803633,61.996976,211.14038)" d="M0 0H-3.49"/>
<path transform="matrix(1.46799,0,0,-.803633,61.996976,211.14038)" stroke-width=".8" stroke-linecap="butt" stroke-linejoin="round" fill="none" stroke="#000000" d="M0 0H-3.49"/>
<use data-text="4" xlink:href="#font_38_21" transform="matrix(17.615635,0,0,-17.615635,33.0496,214.192)"/>
<use data-text="0" xlink:href="#font_38_17" transform="matrix(17.615635,0,0,-17.615635,41.857419,214.192)"/>
<g clip-path="url(#clip_41)">
<path transform="matrix(.964813,0,0,-.803633,61.703104,168.70696)" stroke-width=".8" stroke-linecap="square" stroke-linejoin="round" fill="none" stroke="#b0b0b0" stroke-opacity=".3" d="M0 0H551.89"/>
</g>
<path transform="matrix(1.46799,0,0,-.803633,61.996976,168.70696)" d="M0 0H-3.49"/>
<path transform="matrix(1.46799,0,0,-.803633,61.996976,168.70696)" stroke-width=".8" stroke-linecap="butt" stroke-linejoin="round" fill="none" stroke="#000000" d="M0 0H-3.49"/>
<use data-text="6" xlink:href="#font_38_23" transform="matrix(17.615635,0,0,-17.615635,33.0496,171.758)"/>
<use data-text="0" xlink:href="#font_38_17" transform="matrix(17.615635,0,0,-17.615635,41.857419,171.758)"/>
<g clip-path="url(#clip_42)">
<path transform="matrix(.964813,0,0,-.803633,61.703104,126.272739)" stroke-width=".8" stroke-linecap="square" stroke-linejoin="round" fill="none" stroke="#b0b0b0" stroke-opacity=".3" d="M0 0H551.89"/>
</g>
<path transform="matrix(1.46799,0,0,-.803633,61.996976,126.272739)" d="M0 0H-3.49"/>
<path transform="matrix(1.46799,0,0,-.803633,61.996976,126.272739)" stroke-width=".8" stroke-linecap="butt" stroke-linejoin="round" fill="none" stroke="#000000" d="M0 0H-3.49"/>
<use data-text="8" xlink:href="#font_38_25" transform="matrix(17.615635,0,0,-17.615635,33.0496,129.324)"/>
<use data-text="0" xlink:href="#font_38_17" transform="matrix(17.615635,0,0,-17.615635,41.857419,129.324)"/>
<g clip-path="url(#clip_43)">
<path transform="matrix(.964813,0,0,-.803633,61.703104,83.8385)" stroke-width=".8" stroke-linecap="square" stroke-linejoin="round" fill="none" stroke="#b0b0b0" stroke-opacity=".3" d="M0 0H551.89"/>
</g>
<path transform="matrix(1.46799,0,0,-.803633,61.996976,83.8385)" d="M0 0H-3.49"/>
<path transform="matrix(1.46799,0,0,-.803633,61.996976,83.8385)" stroke-width=".8" stroke-linecap="butt" stroke-linejoin="round" fill="none" stroke="#000000" d="M0 0H-3.49"/>
<use data-text="1" xlink:href="#font_38_18" transform="matrix(17.615635,0,0,-17.615635,23.7136,86.890018)"/>
<use data-text="0" xlink:href="#font_38_17" transform="matrix(17.615635,0,0,-17.615635,32.52142,86.890018)"/>
<use data-text="0" xlink:href="#font_38_17" transform="matrix(17.615635,0,0,-17.615635,41.329236,86.890018)"/>
<g clip-path="url(#clip_44)">
<path transform="matrix(.964813,0,0,-.803633,61.703104,41.404268)" stroke-width=".8" stroke-linecap="square" stroke-linejoin="round" fill="none" stroke="#b0b0b0" stroke-opacity=".3" d="M0 0H551.89"/>
</g>
<path transform="matrix(1.46799,0,0,-.803633,61.996976,41.404268)" d="M0 0H-3.49"/>
<path transform="matrix(1.46799,0,0,-.803633,61.996976,41.404268)" stroke-width=".8" stroke-linecap="butt" stroke-linejoin="round" fill="none" stroke="#000000" d="M0 0H-3.49"/>
<use data-text="1" xlink:href="#font_38_18" transform="matrix(17.615635,0,0,-17.615635,23.7136,44.455995)"/>
<use data-text="2" xlink:href="#font_38_19" transform="matrix(17.615635,0,0,-17.615635,32.52142,44.455995)"/>
<use data-text="0" xlink:href="#font_38_17" transform="matrix(17.615635,0,0,-17.615635,41.329236,44.455995)"/>
<use data-text="W" xlink:href="#font_38_56" transform="matrix(0,-17.615881,-17.615881,-0,18.577599,274.608)"/>
<use data-text="a" xlink:href="#font_38_66" transform="matrix(0,-17.615881,-17.615881,-0,18.577599,259.10255)"/>
<use data-text="l" xlink:href="#font_38_77" transform="matrix(0,-17.615881,-17.615881,-0,18.577599,251.2811)"/>
<use data-text="l" xlink:href="#font_38_77" transform="matrix(0,-17.615881,-17.615881,-0,18.577599,246.38388)"/>
<use data-text="-" xlink:href="#font_38_14" transform="matrix(0,-17.615881,-17.615881,-0,18.577599,241.48667)"/>
<use data-text="c" xlink:href="#font_38_68" transform="matrix(0,-17.615881,-17.615881,-0,18.577599,235.62058)"/>
<use data-text="l" xlink:href="#font_38_77" transform="matrix(0,-17.615881,-17.615881,-0,18.577599,227.79912)"/>
<use data-text="o" xlink:href="#font_38_80" transform="matrix(0,-17.615881,-17.615881,-0,18.577599,222.9019)"/>
<use data-text="c" xlink:href="#font_38_68" transform="matrix(0,-17.615881,-17.615881,-0,18.577599,214.09397)"/>
<use data-text="k" xlink:href="#font_38_76" transform="matrix(0,-17.615881,-17.615881,-0,18.577599,206.2725)"/>
<use data-text=" " xlink:href="#font_38_1" transform="matrix(0,-17.615881,-17.615881,-0,18.577599,197.46457)"/>
<use data-text="t" xlink:href="#font_38_85" transform="matrix(0,-17.615881,-17.615881,-0,18.577599,193.0606)"/>
<use data-text="i" xlink:href="#font_38_74" transform="matrix(0,-17.615881,-17.615881,-0,18.577599,188.16338)"/>
<use data-text="m" xlink:href="#font_38_78" transform="matrix(0,-17.615881,-17.615881,-0,18.577599,183.26616)"/>
<use data-text="e" xlink:href="#font_38_70" transform="matrix(0,-17.615881,-17.615881,-0,18.577599,169.561)"/>
<use data-text=" " xlink:href="#font_38_1" transform="matrix(0,-17.615881,-17.615881,-0,18.577599,161.73955)"/>
<use data-text="p" xlink:href="#font_38_81" transform="matrix(0,-17.615881,-17.615881,-0,18.577599,157.33557)"/>
<use data-text="e" xlink:href="#font_38_70" transform="matrix(0,-17.615881,-17.615881,-0,18.577599,148.52764)"/>
<use data-text="r" xlink:href="#font_38_83" transform="matrix(0,-17.615881,-17.615881,-0,18.577599,140.70618)"/>
<use data-text=" " xlink:href="#font_38_1" transform="matrix(0,-17.615881,-17.615881,-0,18.577599,134.84009)"/>
<use data-text="s" xlink:href="#font_38_84" transform="matrix(0,-17.615881,-17.615881,-0,18.577599,130.43611)"/>
<use data-text="t" xlink:href="#font_38_85" transform="matrix(0,-17.615881,-17.615881,-0,18.577599,123.58353)"/>
<use data-text="e" xlink:href="#font_38_70" transform="matrix(0,-17.615881,-17.615881,-0,18.577599,118.68631)"/>
<use data-text="p" xlink:href="#font_38_81" transform="matrix(0,-17.615881,-17.615881,-0,18.577599,110.86485)"/>
<use data-text=" " xlink:href="#font_38_1" transform="matrix(0,-17.615881,-17.615881,-0,18.577599,102.056919)"/>
<use data-text="(" xlink:href="#font_38_9" transform="matrix(0,-17.615881,-17.615881,-0,18.577599,97.652957)"/>
<use data-text="m" xlink:href="#font_38_78" transform="matrix(0,-17.615881,-17.615881,-0,18.577599,91.786869)"/>
<use data-text="s" xlink:href="#font_38_84" transform="matrix(0,-17.615881,-17.615881,-0,18.577599,78.081699)"/>
<use data-text=")" xlink:href="#font_38_10" transform="matrix(0,-17.615881,-17.615881,-0,18.577599,71.229129)"/>
<path transform="matrix(1.46799,0,0,-.81109,61.996976,296.00477)" stroke-width=".8" stroke-linecap="square" stroke-miterlimit="10" stroke-linejoin="miter" fill="none" stroke="#000000" d="M0 0V358.12"/>
<use data-text="2" xlink:href="#font_45_19" transform="matrix(17.615635,0,0,-17.615635,82.0026,247.54599)"/>
<use data-text="0" xlink:href="#font_45_17" transform="matrix(17.615635,0,0,-17.615635,90.81042,247.54599)"/>
<use data-text="." xlink:href="#font_45_15" transform="matrix(17.615635,0,0,-17.615635,99.61823,247.54599)"/>
<use data-text="2" xlink:href="#font_45_19" transform="matrix(17.615635,0,0,-17.615635,104.02214,247.54599)"/>
<use data-text=" " xlink:href="#font_45_1" transform="matrix(17.615635,0,0,-17.615635,112.829959,247.54599)"/>
<use data-text="m" xlink:href="#font_45_78" transform="matrix(17.615635,0,0,-17.615635,117.233867,247.54599)"/>
<use data-text="s" xlink:href="#font_45_84" transform="matrix(17.615635,0,0,-17.615635,131.90769,247.54599)"/>
<use data-text="4" xlink:href="#font_45_21" transform="matrix(17.615635,0,0,-17.615635,169.5076,185.142)"/>
<use data-text="9" xlink:href="#font_45_26" transform="matrix(17.615635,0,0,-17.615635,178.31542,185.142)"/>
<use data-text="." xlink:href="#font_45_15" transform="matrix(17.615635,0,0,-17.615635,187.12323,185.142)"/>
<use data-text="6" xlink:href="#font_45_23" transform="matrix(17.615635,0,0,-17.615635,191.52715,185.142)"/>
<use data-text=" " xlink:href="#font_45_1" transform="matrix(17.615635,0,0,-17.615635,200.33496,185.142)"/>
<use data-text="m" xlink:href="#font_45_78" transform="matrix(17.615635,0,0,-17.615635,204.73888,185.142)"/>
<use data-text="s" xlink:href="#font_45_84" transform="matrix(17.615635,0,0,-17.615635,219.4127,185.142)"/>
<use data-text="5" xlink:href="#font_45_22" transform="matrix(17.615635,0,0,-17.615635,255.8386,171.053)"/>
<use data-text="6" xlink:href="#font_45_23" transform="matrix(17.615635,0,0,-17.615635,264.64643,171.053)"/>
<use data-text="." xlink:href="#font_45_15" transform="matrix(17.615635,0,0,-17.615635,273.45426,171.053)"/>
<use data-text="2" xlink:href="#font_45_19" transform="matrix(17.615635,0,0,-17.615635,277.85816,171.053)"/>
<use data-text=" " xlink:href="#font_45_1" transform="matrix(17.615635,0,0,-17.615635,286.666,171.053)"/>
<use data-text="m" xlink:href="#font_45_78" transform="matrix(17.615635,0,0,-17.615635,291.0699,171.053)"/>
<use data-text="s" xlink:href="#font_45_84" transform="matrix(17.615635,0,0,-17.615635,305.7437,171.053)"/>
<use data-text="7" xlink:href="#font_45_24" transform="matrix(17.615635,0,0,-17.615635,340.9936,125.151)"/>
<use data-text="7" xlink:href="#font_45_24" transform="matrix(17.615635,0,0,-17.615635,349.80143,125.151)"/>
<use data-text="." xlink:href="#font_45_15" transform="matrix(17.615635,0,0,-17.615635,358.60926,125.151)"/>
<use data-text="9" xlink:href="#font_45_26" transform="matrix(17.615635,0,0,-17.615635,363.01316,125.151)"/>
<use data-text=" " xlink:href="#font_45_1" transform="matrix(17.615635,0,0,-17.615635,371.82099,125.151)"/>
<use data-text="m" xlink:href="#font_45_78" transform="matrix(17.615635,0,0,-17.615635,376.22489,125.151)"/>
<use data-text="s" xlink:href="#font_45_84" transform="matrix(17.615635,0,0,-17.615635,390.8987,125.151)"/>
<use data-text="1" xlink:href="#font_45_18" transform="matrix(17.615635,0,0,-17.615635,424.57063,16.248993)"/>
<use data-text="2" xlink:href="#font_45_19" transform="matrix(17.615635,0,0,-17.615635,433.37846,16.248993)"/>
<use data-text="9" xlink:href="#font_45_26" transform="matrix(17.615635,0,0,-17.615635,442.18629,16.248993)"/>
<use data-text="." xlink:href="#font_45_15" transform="matrix(17.615635,0,0,-17.615635,450.9941,16.248993)"/>
<use data-text="2" xlink:href="#font_45_19" transform="matrix(17.615635,0,0,-17.615635,455.398,16.248993)"/>
<use data-text=" " xlink:href="#font_45_1" transform="matrix(17.615635,0,0,-17.615635,464.20585,16.248993)"/>
<use data-text="m" xlink:href="#font_45_78" transform="matrix(17.615635,0,0,-17.615635,468.60975,16.248993)"/>
<use data-text="s" xlink:href="#font_45_84" transform="matrix(17.615635,0,0,-17.615635,483.28358,16.248993)"/>
<use data-text="5" xlink:href="#font_45_22" transform="matrix(17.615635,0,0,-17.615635,517.7666,173.191)"/>
<use data-text="5" xlink:href="#font_45_22" transform="matrix(17.615635,0,0,-17.615635,526.5744,173.191)"/>
<use data-text="." xlink:href="#font_45_15" transform="matrix(17.615635,0,0,-17.615635,535.3822,173.191)"/>
<use data-text="2" xlink:href="#font_45_19" transform="matrix(17.615635,0,0,-17.615635,539.78616,173.191)"/>
<use data-text=" " xlink:href="#font_45_1" transform="matrix(17.615635,0,0,-17.615635,548.59396,173.191)"/>
<use data-text="m" xlink:href="#font_45_78" transform="matrix(17.615635,0,0,-17.615635,552.99789,173.191)"/>
<use data-text="s" xlink:href="#font_45_84" transform="matrix(17.615635,0,0,-17.615635,567.6717,173.191)"/>
<g clip-path="url(#clip_46)">
</g>
<path transform="matrix(1.64371,0,0,-1.13994,81.2678,132.2276)" d="M0 0H101.16C102.36 0 102.96 .59 102.96 1.79V93.43C102.96 94.63 102.36 95.23 101.16 95.23H0C-1.19 95.23-1.79 94.63-1.79 93.43V1.79C-1.79 .59-1.19 0 0 0Z" fill="#f0f0f0" fill-opacity=".8"/>
<path transform="matrix(1.73001,0,0,-1.73,89.210369,49.502138)" d="M0 0H18V6.29H0Z" fill="#5780ff"/>
<path transform="matrix(1.73001,0,0,-1.73,89.210369,49.502138)" stroke-width=".5" stroke-linecap="butt" stroke-miterlimit="10" stroke-linejoin="miter" fill="none" stroke="#ffffff" d="M0 0H18V6.29H0Z"/>
<use data-text="T" xlink:href="#font_38_53" transform="matrix(16.147933,0,0,-16.147839,132.8056,49.501008)"/>
<use data-text="S" xlink:href="#font_38_52" transform="matrix(16.147933,0,0,-16.147839,142.67198,49.501008)"/>
<use data-text="I" xlink:href="#font_38_42" transform="matrix(16.147933,0,0,-16.147839,151.65024,49.501008)"/>
<use data-text="P" xlink:href="#font_38_49" transform="matrix(16.147933,0,0,-16.147839,157.0275,49.501008)"/>
<use data-text=" " xlink:href="#font_38_1" transform="matrix(16.147933,0,0,-16.147839,166.00576,49.501008)"/>
<use data-text="s" xlink:href="#font_38_84" transform="matrix(16.147933,0,0,-16.147839,170.04274,49.501008)"/>
<use data-text="y" xlink:href="#font_38_90" transform="matrix(16.147933,0,0,-16.147839,176.32428,49.501008)"/>
<use data-text="n" xlink:href="#font_38_79" transform="matrix(16.147933,0,0,-16.147839,184.39824,49.501008)"/>
<use data-text="c" xlink:href="#font_38_68" transform="matrix(16.147933,0,0,-16.147839,192.4722,49.501008)"/>
<path transform="matrix(1.73001,0,0,-1.73,89.210369,72.37103)" d="M0 0H18V6.29H0Z" fill="#e15759"/>
<path transform="matrix(1.73001,0,0,-1.73,89.210369,72.37103)" stroke-width=".5" stroke-linecap="butt" stroke-miterlimit="10" stroke-linejoin="miter" fill="none" stroke="#ffffff" d="M0 0H18V6.29H0Z"/>
<use data-text="P" xlink:href="#font_38_49" transform="matrix(16.147933,0,0,-16.147839,132.8056,72.369998)"/>
<use data-text="o" xlink:href="#font_38_80" transform="matrix(16.147933,0,0,-16.147839,141.22318,72.369998)"/>
<use data-text="l" xlink:href="#font_38_77" transform="matrix(16.147933,0,0,-16.147839,149.29714,72.369998)"/>
<use data-text="i" xlink:href="#font_38_74" transform="matrix(16.147933,0,0,-16.147839,153.78626,72.369998)"/>
<use data-text="c" xlink:href="#font_38_68" transform="matrix(16.147933,0,0,-16.147839,158.27538,72.369998)"/>
<use data-text="y" xlink:href="#font_38_90" transform="matrix(16.147933,0,0,-16.147839,165.44506,72.369998)"/>
<use data-text=" " xlink:href="#font_38_1" transform="matrix(16.147933,0,0,-16.147839,173.51902,72.369998)"/>
<use data-text="s" xlink:href="#font_38_84" transform="matrix(16.147933,0,0,-16.147839,177.556,72.369998)"/>
<use data-text="a" xlink:href="#font_38_66" transform="matrix(16.147933,0,0,-16.147839,183.83754,72.369998)"/>
<use data-text="m" xlink:href="#font_38_78" transform="matrix(16.147933,0,0,-16.147839,191.00722,72.369998)"/>
<use data-text="p" xlink:href="#font_38_81" transform="matrix(16.147933,0,0,-16.147839,203.57032,72.369998)"/>
<use data-text="l" xlink:href="#font_38_77" transform="matrix(16.147933,0,0,-16.147839,211.64427,72.369998)"/>
<use data-text="i" xlink:href="#font_38_74" transform="matrix(16.147933,0,0,-16.147839,216.13339,72.369998)"/>
<use data-text="n" xlink:href="#font_38_79" transform="matrix(16.147933,0,0,-16.147839,220.62252,72.369998)"/>
<use data-text="g" xlink:href="#font_38_72" transform="matrix(16.147933,0,0,-16.147839,228.69647,72.369998)"/>
<path transform="matrix(1.73001,0,0,-1.73,89.210369,95.23993)" d="M0 0H18V6.29H0Z" fill="#8acf57"/>
<path transform="matrix(1.73001,0,0,-1.73,89.210369,95.23993)" stroke-width=".5" stroke-linecap="butt" stroke-miterlimit="10" stroke-linejoin="miter" fill="none" stroke="#ffffff" d="M0 0H18V6.29H0Z"/>
<use data-text="T" xlink:href="#font_38_53" transform="matrix(16.14789,0,0,-16.14789,133.2236,95.23801)"/>
<use data-text="S" xlink:href="#font_38_52" transform="matrix(16.14789,0,0,-16.14789,143.08997,95.23801)"/>
<use data-text="I" xlink:href="#font_38_42" transform="matrix(16.14789,0,0,-16.14789,152.06819,95.23801)"/>
<use data-text="P" xlink:href="#font_38_49" transform="matrix(16.14789,0,0,-16.14789,157.44544,95.23801)"/>
<use data-text=" " xlink:href="#font_38_1" transform="matrix(16.14789,0,0,-16.14789,166.42366,95.23801)"/>
<use data-text="e" xlink:href="#font_38_70" transform="matrix(16.14789,0,0,-16.14789,170.46063,95.23801)"/>
<use data-text="v" xlink:href="#font_38_87" transform="matrix(16.14789,0,0,-16.14789,177.6303,95.23801)"/>
<use data-text="a" xlink:href="#font_38_66" transform="matrix(16.14789,0,0,-16.14789,185.70424,95.23801)"/>
<use data-text="l" xlink:href="#font_38_77" transform="matrix(16.14789,0,0,-16.14789,192.8739,95.23801)"/>
<use data-text="u" xlink:href="#font_38_86" transform="matrix(16.14789,0,0,-16.14789,197.36302,95.23801)"/>
<use data-text="a" xlink:href="#font_38_66" transform="matrix(16.14789,0,0,-16.14789,205.43697,95.23801)"/>
<use data-text="t" xlink:href="#font_38_85" transform="matrix(16.14789,0,0,-16.14789,212.60663,95.23801)"/>
<use data-text="i" xlink:href="#font_38_74" transform="matrix(16.14789,0,0,-16.14789,217.09575,95.23801)"/>
<use data-text="o" xlink:href="#font_38_80" transform="matrix(16.14789,0,0,-16.14789,221.58487,95.23801)"/>
<use data-text="n" xlink:href="#font_38_79" transform="matrix(16.14789,0,0,-16.14789,229.65882,95.23801)"/>
<path transform="matrix(1.73001,0,0,-1.73,89.210369,117.447879)" d="M0 0H18V6.29H0Z" fill="#ffbf28"/>
<path transform="matrix(1.73001,0,0,-1.73,89.210369,117.447879)" stroke-width=".5" stroke-linecap="butt" stroke-miterlimit="10" stroke-linejoin="miter" fill="none" stroke="#ffffff" d="M0 0H18V6.29H0Z"/>
<use data-text="E" xlink:href="#font_38_38" transform="matrix(16.147933,0,0,-16.147839,132.8056,117.44701)"/>
<use data-text="x" xlink:href="#font_38_89" transform="matrix(16.147933,0,0,-16.147839,142.67198,117.44701)"/>
<use data-text="e" xlink:href="#font_38_70" transform="matrix(16.147933,0,0,-16.147839,150.26935,117.44701)"/>
<use data-text="c" xlink:href="#font_38_68" transform="matrix(16.147933,0,0,-16.147839,157.43903,117.44701)"/>
<use data-text="u" xlink:href="#font_38_86" transform="matrix(16.147933,0,0,-16.147839,164.6087,117.44701)"/>
<use data-text="t" xlink:href="#font_38_85" transform="matrix(16.147933,0,0,-16.147839,172.68267,117.44701)"/>
<use data-text="o" xlink:href="#font_38_80" transform="matrix(16.147933,0,0,-16.147839,177.17179,117.44701)"/>
<use data-text="r" xlink:href="#font_38_83" transform="matrix(16.147933,0,0,-16.147839,185.24575,117.44701)"/>
<use data-text=" " xlink:href="#font_38_1" transform="matrix(16.147933,0,0,-16.147839,190.623,117.44701)"/>
<use data-text="s" xlink:href="#font_38_84" transform="matrix(16.147933,0,0,-16.147839,194.65999,117.44701)"/>
<use data-text="t" xlink:href="#font_38_85" transform="matrix(16.147933,0,0,-16.147839,200.94153,117.44701)"/>
<use data-text="e" xlink:href="#font_38_70" transform="matrix(16.147933,0,0,-16.147839,205.43065,117.44701)"/>
<use data-text="p" xlink:href="#font_38_81" transform="matrix(16.147933,0,0,-16.147839,212.60033,117.44701)"/>
<g clip-path="url(#clip_47)">
<path transform="matrix(1.46799,0,0,-.803633,424.17146,296.06709)" d="M0 0H45.61V185.57H0Z" fill="#5780ff"/>
<path transform="matrix(1.46799,0,0,-.803633,424.17146,296.06709)" stroke-width=".5" stroke-linecap="butt" stroke-miterlimit="10" stroke-linejoin="miter" fill="none" stroke="#ffffff" d="M0 0H45.61V185.57H0Z"/>
</g>
<g clip-path="url(#clip_48)">
<path transform="matrix(1.46799,0,0,-.803633,512.26296,296.06065)" d="M0 0H45.61V5.81H0Z" fill="#b0dce7"/>
<path transform="matrix(1.46799,0,0,-.803633,512.26296,296.06065)" stroke-width=".5" stroke-linecap="butt" stroke-miterlimit="10" stroke-linejoin="miter" fill="none" stroke="#ffffff" d="M0 0H45.61V5.81H0Z"/>
</g>
<g clip-path="url(#clip_49)">
<path transform="matrix(1.46799,0,0,-.803633,335.49046,296.05503)" d="M0 0H45.61V56.39H0Z" fill="#5780ff"/>
<path transform="matrix(1.46799,0,0,-.803633,335.49046,296.05503)" stroke-width=".5" stroke-linecap="butt" stroke-miterlimit="10" stroke-linejoin="miter" fill="none" stroke="#ffffff" d="M0 0H45.61V56.39H0Z"/>
</g>
<path transform="matrix(.964813,0,0,-.803633,61.703104,296.00886)" stroke-width=".8" stroke-linecap="square" stroke-miterlimit="10" stroke-linejoin="miter" fill="none" stroke="#000000" d="M0 0H551.89"/>
<g clip-path="url(#clip_50)">
<path transform="matrix(1.46799,0,0,-.803633,424.17146,63.926546)" d="M0 0H45.61V53.01H0Z" fill="#ffc057"/>
<path transform="matrix(1.46799,0,0,-.803633,424.17146,63.926546)" stroke-width=".5" stroke-linecap="butt" stroke-miterlimit="10" stroke-linejoin="miter" fill="none" stroke="#ffffff" d="M0 0H45.61V53.01H0Z"/>
</g>
<g clip-path="url(#clip_51)">
<path transform="matrix(1.46799,0,0,-.803633,335.49046,173.04706)" d="M0 0H45.61V53.28H0Z" fill="#ffc057"/>
<path transform="matrix(1.46799,0,0,-.803633,335.49046,173.04706)" stroke-width=".5" stroke-linecap="butt" stroke-miterlimit="10" stroke-linejoin="miter" fill="none" stroke="#ffffff" d="M0 0H45.61V53.28H0Z"/>
</g>
<g clip-path="url(#clip_52)">
<path transform="matrix(1.46799,0,0,-.803633,250.33492,217.94123)" d="M0 0H45.61V52.02H0Z" fill="#ffc057"/>
<path transform="matrix(1.46799,0,0,-.803633,250.33492,217.94123)" stroke-width=".5" stroke-linecap="butt" stroke-miterlimit="10" stroke-linejoin="miter" fill="none" stroke="#ffffff" d="M0 0H45.61V52.02H0Z"/>
</g>
</g>
</svg>
